<svg width="48" height="48" viewBox="0 0 48 48" fill="none" xmlns="http://www.w3.org/2000/svg">
<path opacity="0.15" d="M12.5 45.5C12.5 45.8978 13.7116 46.2794 15.8683 46.5607C18.0249 46.842 20.95 47 24 47C27.05 47 29.9751 46.842 32.1317 46.5607C34.2884 46.2794 35.5 45.8978 35.5 45.5C35.5 45.1022 34.2884 44.7206 32.1317 44.4393C29.9751 44.158 27.05 44 24 44C20.95 44 18.0249 44.158 15.8683 44.4393C13.7116 44.7206 12.5 45.1022 12.5 45.5Z" fill="#45413C"/>
<path d="M4.32996 22.8299C4.32996 28.0467 6.40232 33.0499 10.0912 36.7387C13.78 40.4275 18.7831 42.4999 24 42.4999C29.2168 42.4999 34.2199 40.4275 37.9087 36.7387C41.5976 33.0499 43.67 28.0467 43.67 22.8299C43.67 17.6131 41.5976 12.61 37.9087 8.92112C34.2199 5.23228 29.2168 3.15991 24 3.15991C18.7831 3.15991 13.78 5.23228 10.0912 8.92112C6.40232 12.61 4.32996 17.6131 4.32996 22.8299Z" fill="#00B8F0"/>
<path d="M41.34 13.55C42.1612 16.2576 42.3369 19.1199 41.8531 21.9077C41.3693 24.6954 40.2393 27.3311 38.5538 29.6036C36.8683 31.8762 34.674 33.7224 32.1467 34.9945C29.6194 36.2666 26.8294 36.9292 24 36.9292C21.1706 36.9292 18.3805 36.2666 15.8532 34.9945C13.3259 33.7224 11.1316 31.8762 9.44608 29.6036C7.76056 27.3311 6.63065 24.6954 6.14683 21.9077C5.66302 19.1199 5.83875 16.2576 6.65996 13.55C5.05502 16.5469 4.2542 19.9086 4.3356 23.3072C4.417 26.7058 5.37784 30.0253 7.12441 32.9419C8.87098 35.8585 11.3436 38.2727 14.3012 39.9489C17.2588 41.6252 20.6004 42.5062 24 42.5062C27.3995 42.5062 30.7411 41.6252 33.6987 39.9489C36.6563 38.2727 39.1289 35.8585 40.8755 32.9419C42.6221 30.0253 43.5829 26.7058 43.6643 23.3072C43.7457 19.9086 42.9449 16.5469 41.34 13.55Z" fill="#009FD9"/>
<path d="M4.32996 22.8299C4.32996 28.0467 6.40232 33.0499 10.0912 36.7387C13.78 40.4275 18.7831 42.4999 24 42.4999C29.2168 42.4999 34.2199 40.4275 37.9087 36.7387C41.5976 33.0499 43.67 28.0467 43.67 22.8299C43.67 17.6131 41.5976 12.61 37.9087 8.92112C34.2199 5.23228 29.2168 3.15991 24 3.15991C18.7831 3.15991 13.78 5.23228 10.0912 8.92112C6.40232 12.61 4.32996 17.6131 4.32996 22.8299Z" stroke="#45413C" stroke-linecap="round" stroke-linejoin="round"/>
<path d="M25.15 23.4999L24.09 25.4999C24.0328 25.6162 23.9509 25.7185 23.85 25.7999L23 26.5099C22.8317 26.6519 22.715 26.8455 22.6679 27.0607C22.6209 27.2759 22.6463 27.5006 22.74 27.6999L24.21 30.8199C24.2733 30.9559 24.3664 31.076 24.4823 31.1712C24.5983 31.2665 24.7342 31.3343 24.88 31.3699L25.51 31.5199C25.6395 31.5513 25.7614 31.6084 25.8685 31.6876C25.9757 31.7668 26.0659 31.8666 26.1339 31.9812C26.2019 32.0958 26.2463 32.2228 26.2646 32.3548C26.2828 32.4868 26.2744 32.6212 26.24 32.7499L24.89 37.8599C24.8543 38.0111 24.8543 38.1686 24.89 38.3199L25 38.8699C25.0348 39.0405 25.1135 39.199 25.2284 39.3299C25.3433 39.4607 25.4903 39.5593 25.655 39.6158C25.8196 39.6724 25.9962 39.685 26.1672 39.6524C26.3382 39.6198 26.4978 39.5431 26.63 39.4299L32.89 34.1799C33.0218 34.068 33.1803 33.9922 33.35 33.9599L34.44 33.7599C34.5911 33.732 34.7338 33.6697 34.8569 33.5778C34.9801 33.4859 35.0804 33.3668 35.15 33.2299L37.15 29.2299C37.2119 29.1085 37.2483 28.9757 37.257 28.8397C37.2657 28.7038 37.2465 28.5675 37.2006 28.4392C37.1547 28.3109 37.0831 28.1933 36.9901 28.0937C36.8972 27.9941 36.7848 27.9145 36.66 27.8599L33.45 26.4299C33.2581 26.3381 33.1005 26.1874 33 25.9999L32.29 24.6499C32.2222 24.5183 32.1261 24.4034 32.0085 24.3134C31.8909 24.2235 31.7548 24.1608 31.61 24.1299L26.24 22.9999C26.0287 22.9542 25.8083 22.9782 25.6118 23.0684C25.4153 23.1585 25.2533 23.3099 25.15 23.4999Z" fill="#6DD627"/>
<path d="M26.62 39.45L31.62 35.27C29.5909 36.2121 27.403 36.765 25.17 36.9L24.91 37.9C24.8742 38.0513 24.8742 38.2088 24.91 38.36L25.02 38.91C25.06 39.0736 25.1407 39.2245 25.2546 39.3486C25.3686 39.4727 25.512 39.566 25.6716 39.6198C25.8311 39.6737 26.0018 39.6864 26.1676 39.6567C26.3334 39.627 26.489 39.5559 26.62 39.45ZM35.14 33.25L35.26 33.02C34.91 33.3 34.55 33.58 34.18 33.83H34.43C34.586 33.797 34.7319 33.7271 34.8554 33.6262C34.9789 33.5253 35.0765 33.3963 35.14 33.25Z" fill="#46B000"/>
<path d="M25.15 23.4999L24.09 25.4999C24.0328 25.6162 23.9509 25.7185 23.85 25.7999L23 26.5099C22.8317 26.6519 22.715 26.8455 22.6679 27.0607C22.6209 27.2759 22.6463 27.5006 22.74 27.6999L24.21 30.8199C24.2733 30.9559 24.3664 31.076 24.4823 31.1712C24.5983 31.2665 24.7342 31.3343 24.88 31.3699L25.51 31.5199C25.6395 31.5513 25.7614 31.6084 25.8685 31.6876C25.9757 31.7668 26.0659 31.8666 26.1339 31.9812C26.2019 32.0958 26.2463 32.2228 26.2646 32.3548C26.2828 32.4868 26.2744 32.6212 26.24 32.7499L24.89 37.8599C24.8543 38.0111 24.8543 38.1686 24.89 38.3199L25 38.8699C25.0348 39.0405 25.1135 39.199 25.2284 39.3299C25.3433 39.4607 25.4903 39.5593 25.655 39.6158C25.8196 39.6724 25.9962 39.685 26.1672 39.6524C26.3382 39.6198 26.4978 39.5431 26.63 39.4299L32.89 34.1799C33.0218 34.068 33.1803 33.9922 33.35 33.9599L34.44 33.7599C34.5911 33.732 34.7338 33.6697 34.8569 33.5778C34.9801 33.4859 35.0804 33.3668 35.15 33.2299L37.15 29.2299C37.2119 29.1085 37.2483 28.9757 37.257 28.8397C37.2657 28.7038 37.2465 28.5675 37.2006 28.4392C37.1547 28.3109 37.0831 28.1933 36.9901 28.0937C36.8972 27.9941 36.7848 27.9145 36.66 27.8599L33.45 26.4299C33.2581 26.3381 33.1005 26.1874 33 25.9999L32.29 24.6499C32.2222 24.5183 32.1261 24.4034 32.0085 24.3134C31.8909 24.2235 31.7548 24.1608 31.61 24.1299L26.24 22.9999C26.0287 22.9542 25.8083 22.9782 25.6118 23.0684C25.4153 23.1585 25.2533 23.3099 25.15 23.4999Z" stroke="#45413C" stroke-linecap="round" stroke-linejoin="round"/>
<path d="M22.41 9.81999L20.41 8.66999C20.2884 8.59921 20.1832 8.50358 20.1011 8.38935C20.019 8.27512 19.9619 8.14485 19.9336 8.00706C19.9053 7.86927 19.9064 7.72705 19.9368 7.5897C19.9672 7.45236 20.0262 7.32297 20.11 7.20999L20.26 6.99999C20.3532 6.87296 20.415 6.72572 20.4405 6.57026C20.4659 6.4148 20.4543 6.25553 20.4065 6.10541C20.3588 5.9553 20.2762 5.81859 20.1656 5.70643C20.055 5.59427 19.9195 5.50983 19.77 5.45999L17.28 4.63999C17.0543 4.55566 16.8057 4.55566 16.58 4.63999C14.541 5.46275 12.6548 6.62222 11 8.06999C10.8016 8.24305 10.6794 8.4874 10.66 8.74999L10.24 14.08C10.2234 14.3155 10.2908 14.5493 10.43 14.74L14.33 20C14.4443 20.1542 14.6005 20.2722 14.78 20.34L19.84 22.29L19.99 22.36L22.6 24C22.7257 24.0737 22.8661 24.1191 23.0112 24.1329C23.1563 24.1467 23.3026 24.1287 23.44 24.08L24.44 23.73L21.79 21.41C21.7214 21.3486 21.6438 21.2981 21.56 21.26L18.24 19.65C18.0957 19.5798 17.9704 19.476 17.8746 19.3472C17.7789 19.2184 17.7156 19.0684 17.69 18.91L17.56 18.17C17.534 18.0209 17.5421 17.8678 17.5838 17.7223C17.6255 17.5768 17.6997 17.4426 17.8009 17.33C17.902 17.2173 18.0273 17.1291 18.1675 17.0719C18.3076 17.0148 18.459 16.9902 18.61 17L21.91 17.27C22.0677 17.2823 22.2261 17.2569 22.3721 17.1961C22.5182 17.1352 22.6477 17.0406 22.75 16.92L26.09 13C26.2484 12.8149 26.4688 12.694 26.71 12.66L29.18 12.33C29.4203 12.296 29.64 12.1759 29.7982 11.9919C29.9565 11.8079 30.0424 11.5726 30.04 11.33V10.57C30.0404 10.3864 29.9902 10.2062 29.895 10.0492C29.7997 9.89219 29.6631 9.76446 29.5 9.67999L25.57 7.67999C25.4398 7.61377 25.2967 7.57687 25.1507 7.57189C25.0048 7.56691 24.8595 7.59397 24.7251 7.65115C24.5907 7.70834 24.4705 7.79428 24.3728 7.90292C24.2752 8.01156 24.2026 8.14027 24.16 8.27999L23.86 9.27999C23.8121 9.42005 23.7337 9.54772 23.6304 9.65378C23.5271 9.75985 23.4016 9.84167 23.2629 9.89333C23.1242 9.945 22.9757 9.96522 22.8282 9.95253C22.6807 9.93985 22.5379 9.89458 22.41 9.81999ZM24 3.16999C23.1908 3.17251 22.3825 3.22595 21.58 3.32999L28.58 6.32999C28.7134 6.3832 28.8566 6.40708 29 6.39999L32.16 6.14999L32.62 5.14999C29.9359 3.8395 26.987 3.16213 24 3.16999Z" fill="#6DD627" stroke="#45413C" stroke-linecap="round" stroke-linejoin="round"/>
<path d="M28.75 18.9999L26 18.0999C25.8818 18.0566 25.7514 18.0605 25.636 18.1108C25.5205 18.1611 25.4289 18.2539 25.38 18.3699L24.74 19.8899C24.7062 19.9705 24.6941 20.0586 24.7049 20.1454C24.7157 20.2321 24.7491 20.3145 24.8017 20.3843C24.8544 20.4541 24.9244 20.5089 25.0048 20.5433C25.0852 20.5776 25.1732 20.5902 25.26 20.5799L27.39 20.2999C27.5041 20.2852 27.6098 20.2323 27.69 20.1499L28.75 18.9999Z" fill="#6DD627" stroke="#45413C" stroke-linecap="round" stroke-linejoin="round"/>
</svg>
