<svg width="48" height="48" viewBox="0 0 48 48" fill="none" xmlns="http://www.w3.org/2000/svg">
<path d="M20.8201 2.46998C21.0586 2.46997 21.2948 2.51712 21.515 2.6087C21.7353 2.70029 21.9353 2.83451 22.1035 3.00364C22.2717 3.17278 22.4048 3.37349 22.4952 3.59425C22.5855 3.815 22.6314 4.05144 22.6301 4.28998V7.91998H20.3601L19.1401 4.99998C19.0227 4.72292 18.9758 4.42108 19.0037 4.12148C19.0315 3.82187 19.1332 3.53385 19.2997 3.28318C19.4661 3.03252 19.6921 2.82703 19.9575 2.68512C20.2228 2.5432 20.5192 2.46928 20.8201 2.46998ZM27.1801 2.46998C27.4809 2.46928 27.7773 2.5432 28.0427 2.68512C28.308 2.82703 28.534 3.03252 28.7004 3.28318C28.8669 3.53385 28.9686 3.82187 28.9964 4.12148C29.0243 4.42108 28.9774 4.72292 28.8601 4.99998L27.6301 7.91998H25.3601V4.28998C25.3601 3.80728 25.5518 3.34436 25.8931 3.00304C26.2344 2.66172 26.6974 2.46998 27.1801 2.46998Z" fill="#FF87AF" stroke="#45413C" stroke-linecap="round" stroke-linejoin="round"/>
<path d="M24.0001 2C24.3361 2.00126 24.6679 2.07552 24.9725 2.21765C25.2771 2.35978 25.5471 2.56638 25.7639 2.82317C25.9808 3.07995 26.1392 3.38078 26.2283 3.70484C26.3175 4.0289 26.3351 4.36845 26.2801 4.7L25.8201 7.47H22.1801L21.72 4.7C21.6632 4.36821 21.6796 4.028 21.768 3.70319C21.8564 3.37838 22.0148 3.07683 22.232 2.81963C22.4492 2.56244 22.7199 2.35582 23.0254 2.21424C23.3308 2.07266 23.6634 1.99954 24.0001 2Z" fill="#FF87AF" stroke="#45413C" stroke-linecap="round" stroke-linejoin="round"/>
<path d="M23.14 2.1799L22.63 0.649902M24.85 2.1799L25.36 0.649902" stroke="#45413C" stroke-linecap="round" stroke-linejoin="round"/>
<path opacity="0.15" d="M9.45996 45.51C9.45996 45.9078 10.9918 46.2894 13.7186 46.5707C16.4454 46.852 20.1437 47.01 24 47.01C27.8562 47.01 31.5545 46.852 34.2813 46.5707C37.0081 46.2894 38.54 45.9078 38.54 45.51C38.54 45.1122 37.0081 44.7307 34.2813 44.4494C31.5545 44.168 27.8562 44.01 24 44.01C20.1437 44.01 16.4454 44.168 13.7186 44.4494C10.9918 44.7307 9.45996 45.1122 9.45996 45.51Z" fill="#45413C"/>
<path d="M39.07 23.8301C39.5835 23.8305 40.0897 23.9523 40.5473 24.1855C41.0049 24.4187 41.4009 24.7566 41.7031 25.1719C42.0052 25.5872 42.205 26.0679 42.2862 26.575C42.3673 27.0822 42.3275 27.6013 42.1699 28.0901L41.08 31.5101C40.6079 32.9769 39.6827 34.2561 38.4373 35.1636C37.192 36.0711 35.6909 36.5601 34.15 36.5601H30.36L29.45 29.7401H33.7999C34.2338 29.7384 34.653 29.5827 34.9827 29.3006C35.3124 29.0185 35.5312 28.6285 35.5999 28.2001L35.8499 26.6001C35.9671 25.8297 36.3562 25.1268 36.9469 24.6187C37.5376 24.1106 38.2908 23.8308 39.07 23.8301Z" fill="#6DD627"/>
<path d="M33.7999 31.9999C34.2344 32.0003 34.6547 31.8453 34.9848 31.5628C35.3149 31.2804 35.5331 30.8892 35.5999 30.4599L35.8499 28.8599C35.9604 28.1462 36.3048 27.4893 36.829 26.9925C37.3532 26.4957 38.0275 26.187 38.7462 26.1149C39.4648 26.0428 40.187 26.2114 40.7995 26.5942C41.4119 26.977 41.8799 27.5523 42.13 28.2299V28.0799C42.2734 27.6502 42.3256 27.1954 42.2835 26.7444C42.2413 26.2934 42.1056 25.8561 41.885 25.4604C41.6645 25.0648 41.3639 24.7195 41.0024 24.4465C40.641 24.1735 40.2266 23.9788 39.7857 23.8748C39.3448 23.7709 38.8871 23.76 38.4418 23.8428C37.9964 23.9256 37.5732 24.1003 37.1991 24.3557C36.8251 24.6112 36.5084 24.9418 36.2692 25.3264C36.03 25.7111 35.8736 26.1414 35.81 26.5899L35.56 28.1899C35.4912 28.6183 35.2724 29.0084 34.9427 29.2904C34.613 29.5725 34.1938 29.7283 33.7599 29.7299H29.45L29.76 31.9999H33.7999Z" fill="#9CEB60"/>
<path d="M39.07 23.8301C39.5835 23.8305 40.0897 23.9523 40.5473 24.1855C41.0049 24.4187 41.4009 24.7566 41.7031 25.1719C42.0052 25.5872 42.205 26.0679 42.2862 26.575C42.3673 27.0822 42.3275 27.6013 42.1699 28.0901L41.08 31.5101C40.6079 32.9769 39.6827 34.2561 38.4373 35.1636C37.192 36.0711 35.6909 36.5601 34.15 36.5601H30.36L29.45 29.7401H33.7999C34.2338 29.7384 34.653 29.5827 34.9827 29.3006C35.3124 29.0185 35.5312 28.6285 35.5999 28.2001L35.8499 26.6001C35.9671 25.8297 36.3562 25.1268 36.9469 24.6187C37.5376 24.1106 38.2908 23.8308 39.07 23.8301Z" stroke="#45413C" stroke-linecap="round" stroke-linejoin="round"/>
<path d="M8.77005 20.6499C8.26663 20.6504 7.77019 20.7677 7.31989 20.9928C6.86958 21.2179 6.47772 21.5445 6.1752 21.9469C5.87269 22.3493 5.66778 22.8165 5.57665 23.3116C5.48551 23.8067 5.51064 24.3162 5.65005 24.7999L6.73005 28.5699C7.16831 30.0873 8.08817 31.4211 9.35087 32.3699C10.6136 33.3187 12.1506 33.8312 13.7301 33.8299H17.3501L18.2501 27.0099H14.0001C13.5481 27.0119 13.1117 26.8447 12.7767 26.5412C12.4418 26.2377 12.2325 25.8199 12.1901 25.3699L12.0001 23.5899C11.923 22.7862 11.5496 22.0399 10.9525 21.4964C10.3554 20.953 9.57744 20.6512 8.77005 20.6499Z" fill="#6DD627"/>
<path d="M5.72994 25.0799C5.97641 24.3841 6.4531 23.7933 7.08111 23.4053C7.70913 23.0173 8.45081 22.8554 9.18338 22.9464C9.91595 23.0374 10.5955 23.3758 11.1095 23.9056C11.6235 24.4355 11.9412 25.125 12.0099 25.8599L12.1799 27.6399C12.2225 28.0917 12.4332 28.5109 12.7703 28.8147C13.1074 29.1184 13.5462 29.2845 13.9999 29.2799H17.9999L18.2999 27.0099H13.9999C13.548 27.0119 13.1116 26.8448 12.7766 26.5413C12.4417 26.2378 12.2324 25.8199 12.1899 25.3699L11.9999 23.5899C11.962 23.136 11.8291 22.6951 11.6098 22.2959C11.3905 21.8967 11.0897 21.548 10.727 21.2725C10.3642 20.997 9.94761 20.8008 9.50417 20.6967C9.06072 20.5925 8.60034 20.5828 8.15289 20.668C7.70543 20.7533 7.28089 20.9317 6.90682 21.1916C6.53274 21.4515 6.21747 21.7871 5.98147 22.1767C5.74546 22.5663 5.59399 23.0012 5.53688 23.4531C5.47977 23.905 5.51829 24.3639 5.64994 24.7999L5.72994 25.0799Z" fill="#9CEB60"/>
<path d="M8.77005 20.6499C8.26663 20.6504 7.77019 20.7677 7.31989 20.9928C6.86958 21.2179 6.47772 21.5445 6.1752 21.9469C5.87269 22.3493 5.66778 22.8165 5.57665 23.3116C5.48551 23.8067 5.51064 24.3162 5.65005 24.7999L6.73005 28.5699C7.16831 30.0873 8.08817 31.4211 9.35087 32.3699C10.6136 33.3187 12.1506 33.8312 13.7301 33.8299H17.3501L18.2501 27.0099H14.0001C13.5481 27.0119 13.1117 26.8447 12.7767 26.5412C12.4418 26.2377 12.2325 25.8199 12.1901 25.3699L12.0001 23.5899C11.923 22.7862 11.5496 22.0399 10.9525 21.4964C10.3554 20.953 9.57744 20.6512 8.77005 20.6499Z" stroke="#45413C" stroke-linecap="round" stroke-linejoin="round"/>
<path d="M24 7C22.7053 7.00028 21.4241 7.26216 20.2332 7.76991C19.0422 8.27766 17.9662 9.02082 17.0696 9.95477C16.173 10.8887 15.4743 11.9942 15.0156 13.2049C14.5569 14.4155 14.3475 15.7064 14.4 17L15.2 37C15.3078 39.2613 16.2821 41.3944 17.9206 42.9566C19.5591 44.5188 21.7361 45.3904 24 45.3904C26.2639 45.3904 28.4409 44.5188 30.0794 42.9566C31.7179 41.3944 32.6922 39.2613 32.8 37L33.6 17C33.6525 15.7064 33.4432 14.4155 32.9844 13.2049C32.5257 11.9942 31.827 10.8887 30.9305 9.95477C30.0339 9.02082 28.9578 8.27766 27.7669 7.76991C26.5759 7.26216 25.2947 7.00028 24 7Z" fill="#6DD627"/>
<path d="M24 10.65C26.3299 10.6495 28.5804 11.4964 30.332 13.0327C32.0835 14.569 33.2166 16.6899 33.52 19L33.6 17C33.6593 15.7024 33.4548 14.4063 32.9991 13.19C32.5434 11.9736 31.8458 10.8623 30.9485 9.92313C30.0513 8.98396 28.9729 8.23643 27.7786 7.7257C26.5843 7.21498 25.2989 6.95166 24 6.95166C22.7011 6.95166 21.4157 7.21498 20.2214 7.7257C19.0271 8.23643 17.9488 8.98396 17.0515 9.92313C16.1542 10.8623 15.4566 11.9736 15.0009 13.19C14.5452 14.4063 14.3408 15.7024 14.4 17L14.48 19C14.7834 16.6899 15.9165 14.569 17.6681 13.0327C19.4196 11.4964 21.6701 10.6495 24 10.65Z" fill="#9CEB60"/>
<path d="M17.71 9.36L16.73 8.38M14.76 13.98L13.55 13.38M30.76 9.8L31.73 8.83M33.34 14.35L34.91 13.83M33.38 22.47H34.91M14.55 20.68L13.09 20.19M9.00003 20.65L9.46003 19.29M5.82003 22.47L4.91003 22.01M6.68003 28.38H4.91003M10.25 32.95L8.55003 33.38M15.28 37.92L14.37 37.47M32.36 39.47L34.91 38.83M38.39 35.19H39.91M41.35 30.65H43.09M42.05 25.77L43.09 24.74M38.16 23.96L37.64 22.92M20.36 14.74L19.45 13.38M27.18 16.1L28.09 15.65M19.45 22.01L18.09 21.1M24 25.19L24.91 24.29M29.91 21.1L30.82 19.74M19 30.65L18.09 29.74M26.27 31.1L27.64 29.28M22.18 37.92L20.82 36.56M29 37.01L29.45 35.19M37.64 29.74L38.54 28.38M35.36 33.38L36.73 32.92M9.91003 27.47L9.00003 26.56M24 7C22.7054 7.00028 21.4241 7.26216 20.2332 7.76991C19.0422 8.27766 17.9662 9.02082 17.0696 9.95477C16.173 10.8887 15.4744 11.9942 15.0156 13.2049C14.5569 14.4155 14.3475 15.7064 14.4 17L15.2 37C15.3079 39.2613 16.2821 41.3944 17.9206 42.9566C19.5591 44.5188 21.7361 45.3904 24 45.3904C26.2639 45.3904 28.441 44.5188 30.0795 42.9566C31.718 41.3944 32.6922 39.2613 32.8 37L33.6 17C33.6526 15.7064 33.4432 14.4155 32.9845 13.2049C32.5257 11.9942 31.8271 10.8887 30.9305 9.95477C30.0339 9.02082 28.9578 8.27766 27.7669 7.76991C26.5759 7.26216 25.2947 7.00028 24 7Z" stroke="#45413C" stroke-linecap="round" stroke-linejoin="round"/>
</svg>
