<svg width="48" height="48" viewBox="0 0 48 48" fill="none" xmlns="http://www.w3.org/2000/svg">
<path d="M20.85 5.58009C21.3266 5.58272 21.7829 5.77321 22.1199 6.1102C22.4569 6.4472 22.6474 6.90351 22.65 7.38009V11.0001H20.4L19.18 8.07009C19.0662 7.79601 19.022 7.49805 19.0512 7.20274C19.0805 6.90743 19.1823 6.62392 19.3476 6.37747C19.5129 6.13101 19.7365 5.92924 19.9987 5.79012C20.2608 5.65101 20.5532 5.57886 20.85 5.58009ZM27.15 5.58009C27.4467 5.57886 27.7392 5.65101 28.0013 5.79012C28.2635 5.92924 28.4871 6.13101 28.6524 6.37747C28.8177 6.62392 28.9195 6.90743 28.9487 7.20274C28.978 7.49805 28.9337 7.79601 28.82 8.07009L27.6 11.0001H25.35V7.38009C25.3526 6.90351 25.5431 6.4472 25.8801 6.1102C26.2171 5.77321 26.6734 5.58272 27.15 5.58009Z" fill="#FF87AF" stroke="#45413C" stroke-linecap="round" stroke-linejoin="round"/>
<path d="M24 5.12988C24.3325 5.13133 24.6608 5.20486 24.9621 5.34539C25.2634 5.48592 25.5307 5.69011 25.7455 5.9439C25.9604 6.19769 26.1176 6.49503 26.2064 6.81544C26.2952 7.13586 26.3135 7.47172 26.26 7.79988L25.8 10.5399H22.2L21.74 7.79988C21.6866 7.47172 21.7048 7.13586 21.7937 6.81544C21.8825 6.49503 22.0397 6.19769 22.2545 5.9439C22.4694 5.69011 22.7366 5.48592 23.038 5.34539C23.3393 5.20486 23.6675 5.13133 24 5.12988Z" fill="#FF87AF" stroke="#45413C" stroke-linecap="round" stroke-linejoin="round"/>
<path d="M12.22 26.3701C12.3247 25.8284 12.3247 25.2717 12.22 24.7301C11.9247 23.6081 11.2084 22.643 10.2199 22.0356C9.23147 21.4281 8.04692 21.2249 6.91252 21.4683C5.77813 21.7116 4.78116 22.3828 4.12885 23.3423C3.47655 24.3017 3.21909 25.4757 3.41001 26.6201C3.79169 28.3492 4.66641 29.9307 5.92828 31.1731C7.19016 32.4154 8.78508 33.2654 10.52 33.6201C19.3 35.7601 18.62 34.5301 18.62 34.5301L12.22 26.3701Z" fill="#6DD627"/>
<path d="M3.51998 27.1901C3.83877 26.3757 4.35934 25.6557 5.0328 25.0977C5.70625 24.5397 6.51049 24.162 7.36998 24.0001C8.24299 23.7935 9.15474 23.8176 10.0156 24.0701C10.8765 24.3226 11.6568 24.7947 12.28 25.4401C12.2647 25.2184 12.2346 24.9979 12.19 24.7801C11.8947 23.6581 11.1784 22.6931 10.1899 22.0856C9.20144 21.4781 8.01689 21.275 6.8825 21.5183C5.7481 21.7617 4.75113 22.4328 4.09882 23.3923C3.44652 24.3518 3.18906 25.5257 3.37998 26.6701C3.41998 26.8101 3.46998 27.0001 3.51998 27.1901Z" fill="#9CEB60"/>
<path d="M12.22 26.3701C12.3247 25.8284 12.3247 25.2717 12.22 24.7301C11.9247 23.6081 11.2084 22.643 10.2199 22.0356C9.23147 21.4281 8.04692 21.2249 6.91252 21.4683C5.77813 21.7116 4.78116 22.3828 4.12885 23.3423C3.47655 24.3017 3.21909 25.4757 3.41001 26.6201C3.79169 28.3492 4.66641 29.9307 5.92828 31.1731C7.19016 32.4154 8.78508 33.2654 10.52 33.6201C19.3 35.7601 18.62 34.5301 18.62 34.5301L12.22 26.3701Z" stroke="#45413C" stroke-linecap="round" stroke-linejoin="round"/>
<path d="M41.1299 17.7599C39.8935 17.6746 38.6736 18.0821 37.7367 18.8934C36.7998 19.7048 36.2221 20.854 36.1299 22.0899V22.4499L33.0699 29.4499C33.0699 29.4499 34.9399 31.1899 38.7799 30.5999C43.0599 29.9599 45.3099 25.6499 45.5299 22.7699C45.5733 22.1513 45.4937 21.5303 45.2955 20.9427C45.0973 20.3552 44.7846 19.8127 44.3754 19.3468C43.9662 18.8809 43.4686 18.5007 42.9116 18.2283C42.3545 17.956 41.749 17.7967 41.1299 17.7599Z" fill="#6DD627"/>
<path d="M40.53 20.45C41.5435 20.494 42.5265 20.8096 43.3762 21.3638C44.2259 21.9179 44.9111 22.6903 45.36 23.6C45.36 23.32 45.45 23.05 45.47 22.79C45.5561 21.5698 45.1632 20.3642 44.3746 19.4291C43.5861 18.494 42.464 17.9032 41.2469 17.7821C40.0297 17.6611 38.8132 18.0193 37.8559 18.7807C36.8986 19.5421 36.2759 20.6468 36.12 21.86C36.7229 21.3412 37.4241 20.949 38.1817 20.7068C38.9393 20.4646 39.7379 20.3772 40.53 20.45Z" fill="#9CEB60"/>
<path d="M41.1299 17.7599C39.8935 17.6746 38.6736 18.0821 37.7367 18.8934C36.7998 19.7048 36.2221 20.854 36.1299 22.0899V22.4499L33.0699 29.4499C33.0699 29.4499 34.9399 31.1899 38.7799 30.5999C43.0599 29.9599 45.3099 25.6499 45.5299 22.7699C45.5733 22.1513 45.4937 21.5303 45.2955 20.9427C45.0973 20.3552 44.7846 19.8127 44.3754 19.3468C43.9662 18.8809 43.4686 18.5007 42.9116 18.2283C42.3545 17.956 41.749 17.7967 41.1299 17.7599Z" stroke="#45413C" stroke-linecap="round" stroke-linejoin="round"/>
<path opacity="0.15" d="M12.5 45.5C12.5 45.8978 13.7116 46.2794 15.8683 46.5607C18.0249 46.842 20.95 47 24 47C27.05 47 29.9751 46.842 32.1317 46.5607C34.2884 46.2794 35.5 45.8978 35.5 45.5C35.5 45.1022 34.2884 44.7206 32.1317 44.4393C29.9751 44.158 27.05 44 24 44C20.95 44 18.0249 44.158 15.8683 44.4393C13.7116 44.7206 12.5 45.1022 12.5 45.5Z" fill="#45413C"/>
<path d="M23.9999 9.62988C22.2503 9.64523 20.5211 10.0088 18.9135 10.6994C17.3058 11.3901 15.8517 12.3939 14.636 13.6524C13.4203 14.9109 12.4674 16.3988 11.8329 18.0294C11.1983 19.6601 10.8947 21.4007 10.9399 23.1499C10.9399 28.2099 13.1599 34.7899 14.6299 38.5699C15.3422 40.4803 16.6214 42.1274 18.2961 43.2904C19.9708 44.4533 21.961 45.0766 23.9999 45.0766C26.0389 45.0766 28.029 44.4533 29.7038 43.2904C31.3785 42.1274 32.6577 40.4803 33.3699 38.5699C34.8399 34.7899 37.0599 28.2099 37.0599 23.1499C37.1052 21.4007 36.8016 19.6601 36.167 18.0294C35.5325 16.3988 34.5796 14.9109 33.3639 13.6524C32.1482 12.3939 30.6941 11.3901 29.0864 10.6994C27.4787 10.0088 25.7496 9.64523 23.9999 9.62988Z" fill="#6DD627"/>
<path d="M23.9999 14.2499C27.1635 14.2729 30.2121 15.4382 32.5844 17.5312C34.9567 19.6242 36.4929 22.5039 36.9099 25.6399C37.0079 24.8135 37.058 23.9821 37.0599 23.1499C37.1011 21.4018 36.7948 19.6629 36.1587 18.034C35.5227 16.4052 34.5696 14.9189 33.3547 13.6612C32.1398 12.4036 30.6874 11.3996 29.0815 10.7076C27.4757 10.0156 25.7484 9.64925 23.9999 9.62988C22.2503 9.64523 20.5211 10.0088 18.9135 10.6994C17.3058 11.3901 15.8517 12.3939 14.636 13.6524C13.4203 14.9109 12.4674 16.3988 11.8329 18.0294C11.1983 19.6601 10.8947 21.4007 10.9399 23.1499C10.9419 23.9821 10.992 24.8135 11.0899 25.6399C11.4969 22.4996 13.0301 19.6139 15.4046 17.519C17.7791 15.424 20.8334 14.2624 23.9999 14.2499Z" fill="#9CEB60"/>
<path d="M23.9999 9.62988C22.2503 9.64523 20.5211 10.0088 18.9135 10.6994C17.3058 11.3901 15.8517 12.3939 14.636 13.6524C13.4203 14.9109 12.4674 16.3988 11.8329 18.0294C11.1983 19.6601 10.8947 21.4007 10.9399 23.1499C10.9399 28.2099 13.1599 34.7899 14.6299 38.5699C15.3422 40.4803 16.6214 42.1274 18.2961 43.2904C19.9708 44.4533 21.961 45.0766 23.9999 45.0766C26.0389 45.0766 28.029 44.4533 29.7038 43.2904C31.3785 42.1274 32.6577 40.4803 33.3699 38.5699C34.8399 34.7899 37.0599 28.2099 37.0599 23.1499C37.1052 21.4007 36.8016 19.6601 36.167 18.0294C35.5325 16.3988 34.5796 14.9109 33.3639 13.6524C32.1482 12.3939 30.6941 11.3901 29.0864 10.6994C27.4787 10.0088 25.7496 9.64523 23.9999 9.62988Z" stroke="#45413C" stroke-linecap="round" stroke-linejoin="round"/>
<path d="M24 32.16C23.504 32.1627 23.0247 31.981 22.6551 31.6503C22.2855 31.3195 22.0521 30.8632 22 30.37L21.79 27.69C21.7844 27.6276 21.7919 27.5647 21.812 27.5054C21.8322 27.4461 21.8644 27.3917 21.9068 27.3456C21.9491 27.2994 22.0006 27.2627 22.058 27.2376C22.1154 27.2125 22.1774 27.1997 22.24 27.2H25.76C25.8226 27.1997 25.8846 27.2125 25.942 27.2376C25.9993 27.2627 26.0509 27.2994 26.0932 27.3456C26.1356 27.3917 26.1678 27.4461 26.1879 27.5054C26.208 27.5647 26.2156 27.6276 26.21 27.69L26 30.37C25.9479 30.8632 25.7144 31.3195 25.3448 31.6503C24.9753 31.981 24.496 32.1627 24 32.16Z" fill="#FF866E" stroke="#45413C" stroke-linecap="round" stroke-linejoin="round"/>
<path d="M16.92 22.2499C16.92 22.6079 17.0623 22.9513 17.3154 23.2045C17.5686 23.4577 17.912 23.5999 18.27 23.5999C18.6281 23.5999 18.9715 23.4577 19.2246 23.2045C19.4778 22.9513 19.62 22.6079 19.62 22.2499C19.62 21.8919 19.4778 21.5485 19.2246 21.2953C18.9715 21.0421 18.6281 20.8999 18.27 20.8999C17.912 20.8999 17.5686 21.0421 17.3154 21.2953C17.0623 21.5485 16.92 21.8919 16.92 22.2499ZM28.38 22.2499C28.38 22.6079 28.5223 22.9513 28.7754 23.2045C29.0286 23.4577 29.372 23.5999 29.73 23.5999C30.0881 23.5999 30.4315 23.4577 30.6846 23.2045C30.9378 22.9513 31.08 22.6079 31.08 22.2499C31.08 21.8919 30.9378 21.5485 30.6846 21.2953C30.4315 21.0421 30.0881 20.8999 29.73 20.8999C29.372 20.8999 29.0286 21.0421 28.7754 21.2953C28.5223 21.5485 28.38 21.8919 28.38 22.2499Z" fill="#45413C" stroke="#45413C" stroke-linecap="round" stroke-linejoin="round"/>
<path d="M18.27 27C18.27 27.54 17.53 28 16.63 28C15.73 28 15 27.55 15 27C15 26.45 15.73 26 16.64 26C17.55 26 18.27 26.48 18.27 27ZM29.73 27C29.73 27.54 30.47 28 31.37 28C32.27 28 33 27.55 33 27C33 26.45 32.27 26 31.36 26C30.45 26 29.73 26.48 29.73 27Z" fill="#C8FFA1"/>
<path d="M23.1501 5.29003L22.6501 3.78003M24.8501 5.29003L25.3501 3.78003M15.9801 12.42L14.5401 10.99M12.2001 17.27L10.4901 16.84M31.7401 12.22L33.0101 10.54M35.1401 16.03L36.6101 15.04M41.9701 17.9L42.4701 16.39M45.4801 22.45L47.4301 21.8M43.6601 27.49L45.1701 29.01M37.7901 30.72L38.4201 32.61M7.40005 21.18L6.88005 19.09M3.41005 24.59L1.93005 23.6M5.98005 31.26L4.63005 32.61M10.8901 33.7L10.4901 35.31M14.5801 38.45L13.1901 38.92M34.2601 36.15L35.7101 37.11M40.2201 22.7L41.1201 21.35M39.7701 26.3L41.1201 25.85M9.13005 28.1L7.33005 27.2M28.5001 15.49L28.9601 13.69M20.4001 15.04L19.9501 13.69M31.2101 35.31L32.5601 34.41M17.6901 34.86L16.3401 33.96M27.6001 37.11L28.0501 35.76" stroke="#45413C" stroke-linecap="round" stroke-linejoin="round"/>
</svg>
