<svg width="102" height="102" viewBox="0 0 102 102" fill="none" xmlns="http://www.w3.org/2000/svg">
<path d="M47.47 28.6996C54.3677 25.2861 59.6396 19.2883 62.14 12.0096C62.3 11.5696 64.9 26.3496 73.66 29.1996C73.66 29.1996 63.06 34.2796 60.55 44.3396C60.56 44.4796 59.95 36.3496 47.47 28.6996Z" fill="#40752D"/>
<path d="M62.76 76.5696C68.4393 73.7554 72.7747 68.8088 74.82 62.8096C74.95 62.4496 77.08 74.6096 84.32 76.9496C84.32 76.9496 75.61 81.1296 73.54 89.3996C73.51 89.5096 73.01 82.8296 62.76 76.5696Z" fill="#8ECF76"/>
<path d="M17 58.0896C22.4818 55.3685 26.6709 50.5973 28.66 44.8096C28.78 44.4496 30.85 56.1896 37.84 58.4496C37.84 58.4496 29.42 62.4496 27.43 70.4496C27.38 70.5796 26.9 64.1296 17 58.0896Z" fill="#40752D"/>
</svg>
