<svg width="102" height="102" viewBox="0 0 102 102" fill="none" xmlns="http://www.w3.org/2000/svg">
<path d="M21.8726 59.81C23.8726 61.81 25.8726 63.75 27.8726 65.71C28.6026 66.42 29.3826 67.08 30.1126 67.8C32.6726 70.35 35.2226 72.91 37.6726 75.57L40.9926 79.06C42.4748 80.5178 43.7109 82.2064 44.6526 84.06C44.9126 84.69 44.6526 84.68 44.1526 84.35C43.3867 83.8591 42.6641 83.3037 41.9926 82.69C41.6426 82.33 41.2526 81.98 40.8926 81.63L40.3226 81.12L39.7626 80.64L37.5826 78.45C36.1326 76.99 34.6426 75.54 33.2226 74C31.5326 72.16 29.5426 70.46 27.6826 68.7L21.5626 62.84C20.3126 61.62 19.0726 60.41 17.8526 59.13C17.6226 58.89 17.3826 58.65 17.1626 58.39C16.9426 58.13 16.9326 58.14 16.8226 58C16.7126 57.86 16.5926 57.74 16.4426 57.52C16.1353 57.1627 15.9777 56.7006 16.0026 56.23C16.04 55.999 16.1072 55.7737 16.2026 55.56C16.2926 55.34 16.4126 55.11 16.4826 54.98C17.1626 53.76 17.9326 52.7 18.6426 51.59C19.7626 49.89 20.7826 48.17 21.8026 46.47C22.0326 46.09 22.2226 45.71 22.4726 45.35C22.7828 44.8704 23.1341 44.4187 23.5226 44C23.7621 43.7983 24.0469 43.6577 24.3526 43.59C24.4702 43.5487 24.5905 43.5153 24.7126 43.49C24.8826 43.49 24.9726 43.64 24.9826 44.01C24.9887 44.5158 24.8864 45.0171 24.6826 45.48C23.2926 48.96 20.8326 51.93 19.0626 55.13C18.9126 55.42 18.7526 55.71 18.6226 55.98L18.5326 56.18L18.7326 56.43L19.0526 56.8C19.9326 57.8 20.9426 58.8 21.9326 59.8L21.8726 59.81Z" fill="url(#paint0_linear_305_103)"/>
<path d="M52.8326 64.6401C52.8326 64.6401 55.1426 64.4901 55.5026 63.1801C55.8626 61.8701 55.5026 67.1001 55.5026 67.1001L52.8326 64.6401Z" fill="url(#paint1_linear_305_103)"/>
<path d="M56.2226 53.8L50.1226 54.08L47.9126 54.24L43.9926 54.45C42.6826 54.45 41.3726 54.54 40.0626 54.62C38.9026 54.7 37.7426 54.8 36.6026 54.9L32.1726 55.29C31.7126 55.29 31.7726 55.29 32.1726 55.23C32.5726 55.17 33.2626 54.98 34.1026 54.84C37.1026 54.33 40.1026 53.84 43.1026 53.51L48.6626 52.92L54.7926 52.39L58.5626 52.11C60.4726 51.96 62.3826 51.84 64.2726 51.64C65.7426 51.5 67.1626 51.24 68.6126 51.04C68.9326 51.04 69.2426 50.94 69.6126 50.91C70.8026 50.79 71.1926 50.91 71.4926 51.32C71.5664 51.4129 71.6301 51.5135 71.6826 51.62C71.8326 51.97 71.3726 52.3 70.5026 52.49C67.8442 53.0215 65.1502 53.3557 62.4426 53.49L56.2226 53.83V53.8Z" fill="url(#paint2_linear_305_103)"/>
<path d="M37.9426 50.4099L36.6526 48.7799C36.4926 48.5799 36.3126 48.3999 36.1626 48.1999C35.6526 47.4599 35.1626 46.7099 34.6726 45.9499L34.0126 44.9499C33.7158 44.5518 33.483 44.1098 33.3226 43.6399C33.2326 43.3299 33.8326 43.5299 34.1626 43.9399C34.7226 44.7299 35.3926 45.4699 35.9826 46.2899C36.3726 46.7608 36.7864 47.2114 37.2226 47.6399L38.5826 49.1799L39.4326 50.1199C39.8726 50.5899 40.3026 51.0699 40.7726 51.4999C41.1575 51.8132 41.558 52.1069 41.9726 52.3799C42.0663 52.4341 42.1565 52.4942 42.2426 52.5599C42.5526 52.8199 42.5726 52.9799 42.3426 53.3399C42.2951 53.4269 42.2416 53.5104 42.1826 53.5899C42.0095 53.8435 41.6729 53.9255 41.4026 53.7799C40.6045 53.3171 39.8882 52.7258 39.2826 52.0299C38.8126 51.5199 38.3626 51.0299 37.9026 50.4599L37.9426 50.4099Z" fill="url(#paint3_linear_305_103)"/>
<path d="M24.8126 59.87C27.2226 62.64 29.7226 65.33 32.2226 68.02C33.1526 69.02 34.2226 69.89 35.1026 70.89C38.3526 74.41 41.5326 78.01 44.6926 81.66C46.0626 83.3 47.5126 84.9 48.9126 86.53L50.2726 88.12C50.6726 88.71 51.0626 89.28 51.4126 89.92C52.2168 91.2296 52.719 92.702 52.8826 94.23C52.8826 95.44 52.2126 95.01 51.4126 94.55C50.284 94.0616 49.2139 93.4477 48.2226 92.72C47.7626 92.29 47.2726 91.87 46.7626 91.45C46.2968 90.9943 45.8562 90.5136 45.4426 90.01L42.7626 87.01L41.4126 85.51L40.1226 83.92C39.2626 82.85 38.4126 81.77 37.5726 80.67C35.3782 78.0851 33.0412 75.6246 30.5726 73.3C27.9926 70.6 25.4126 67.87 22.8726 65.08C21.2926 63.39 19.7426 61.64 18.2226 59.74L17.8026 59.16C17.6326 58.92 17.4626 58.63 17.2926 58.36C16.9842 57.8313 16.7836 57.2467 16.7026 56.64C16.7579 56.0136 16.8992 55.3979 17.1226 54.81C17.4026 54.19 17.5726 53.81 17.7926 53.4C18.6226 51.78 19.5026 50.27 20.3126 48.74C20.9426 47.54 21.5126 46.34 22.0526 45.13C22.5926 43.92 23.0526 42.68 23.6826 41.55C23.9626 41.04 24.1626 40.55 24.4426 40.04C24.7659 39.3722 25.1761 38.7502 25.6626 38.19C26.0216 37.8911 26.4466 37.682 26.9026 37.58C27.1126 37.58 27.3326 37.44 27.5126 37.41C27.6926 37.38 28.0326 37.59 28.2026 38.09C28.4161 38.7837 28.4471 39.5208 28.2926 40.23C28.0526 41.5 27.7526 42.76 27.4226 43.99C27.2635 44.6015 27.0493 45.1973 26.7826 45.77C26.5426 46.35 26.2826 46.92 26.0226 47.49C24.9726 49.77 23.8026 52 22.7926 54.17L22.2226 55.32C22.1313 55.5016 22.0511 55.6887 21.9826 55.88L21.8926 56.1C21.8771 56.0911 21.858 56.0911 21.8426 56.1C21.7426 55.98 22.0926 56.44 22.3026 56.72L23.1026 57.72C23.6726 58.39 24.2726 59.06 24.8826 59.72L24.8126 59.87Z" fill="url(#paint4_linear_305_103)"/>
<path d="M75.5426 32.64C76.5763 35.2397 77.8066 37.757 79.2226 40.17C80.6526 42.63 82.2226 45.01 83.9526 47.48L85.7126 50.01L86.0126 50.8L86.1526 51.2L86.2326 51.39V51.49H86.0726C86.1171 51.7581 86.1171 52.0318 86.0726 52.3C85.9965 52.5811 85.8892 52.8528 85.7526 53.11C85.4488 53.6548 85.1149 54.1822 84.7526 54.69L84.2926 55.33L83.9626 55.77C79.2126 61.83 74.3826 67.66 69.8326 73.77C67.8326 76.48 65.8326 79.25 64.0426 82.02C62.8626 83.8 61.7526 85.63 60.6526 87.44C59.5526 89.25 58.2726 90.97 57.2726 92.79C56.6726 93.91 56.2726 93.66 56.0326 92.34C55.8355 90.2534 56.1335 88.1497 56.9026 86.2C58.9317 82.2097 61.206 78.349 63.7126 74.64C66.2926 71.01 69.0126 67.5 71.8726 64.07C73.5726 62.07 75.2126 59.86 76.8126 57.66L80.8826 52C80.8826 51.92 81.0426 51.82 80.9826 51.73L80.8226 51.48C80.8226 51.38 80.7026 51.28 80.6326 51.17L80.4326 50.87L78.9826 48.82C78.2226 47.74 77.4226 46.64 76.6726 45.47C75.132 43.1755 73.7295 40.7913 72.4726 38.33C72.0226 37.45 71.6026 36.55 71.2026 35.64C70.9926 35.19 70.8126 34.73 70.6226 34.27L70.4126 33.76L70.3026 33.42C70.2419 33.2113 70.158 33.01 70.0526 32.82C69.8419 32.7764 69.6276 32.7529 69.4126 32.75H67.3326C65.9526 32.68 64.5726 33.02 63.1826 32.96L59.0226 33.05L54.8626 33.21C53.4826 33.21 52.1026 33.3 50.7226 33.37C46.4426 33.6 42.2626 34.22 38.0426 34.69C37.1126 34.79 36.2126 34.96 35.2726 35.03C34.3326 35.1 33.6826 35.12 33.0726 35.11C32.5448 35.0322 32.0321 34.8737 31.5526 34.64C30.8449 34.2874 30.2442 33.7523 29.8126 33.09C29.617 32.8376 29.4366 32.5738 29.2726 32.3C29.0826 31.87 29.3326 31.46 29.9326 30.94C30.7565 30.2139 31.7193 29.6628 32.7626 29.32C36.5969 28.5559 40.469 27.9951 44.3626 27.64C46.3626 27.44 48.3626 27.2766 50.3626 27.15C52.3626 27.03 54.3626 26.86 56.3626 26.89H62.3626C63.0308 26.8751 63.6992 26.9085 64.3626 26.99C65.0426 27.1 65.7226 27.24 66.3626 27.32H68.4226C68.6326 27.32 69.5026 27.32 70.1026 27.37C70.4373 27.3742 70.7714 27.4009 71.1026 27.45H71.5826C71.7284 27.4813 71.8673 27.5389 71.9926 27.62C72.2566 27.729 72.4925 27.8966 72.6826 28.11L72.9926 28.38C73.0926 28.24 72.7926 28.68 73.2126 28.08L73.2726 28.16L73.4026 28.34L74.4526 29.72L75.2826 31.64L75.6526 32.55L75.5426 32.64Z" fill="url(#paint5_linear_305_103)"/>
<path d="M55.6425 54.9199C52.8825 55.0399 50.1125 55.1899 47.3525 55.4099C46.3525 55.4799 45.3525 55.7099 44.3525 55.7599C40.7725 55.8999 37.1925 56.0599 33.6225 56.3499C32.8225 56.4099 32.0425 56.5299 31.2425 56.5899L28.8725 56.8099C27.8725 56.9099 26.8725 57.0299 25.8725 57.0899H25.1025L24.3225 56.9999C23.7925 56.9399 23.2725 56.8799 22.7325 56.7699C22.3925 56.7099 22.2025 56.5799 22.2525 56.5299C22.3025 56.4799 22.4625 56.4399 22.7125 56.2799C23.0581 56.0717 23.3919 55.8447 23.7125 55.5999L24.3825 55.1199C24.5025 55.0199 24.6325 54.9599 24.7625 54.8499L25.1625 54.7199C27.1625 54.1399 29.1625 53.5299 31.1625 53.0399C33.1625 52.7399 35.2725 52.5099 37.3725 52.3999C39.8725 52.2899 42.3725 51.6599 44.9625 51.3999C47.7625 51.1199 50.5725 50.8999 53.3825 50.7099L58.5925 50.3799C61.2125 50.2099 63.8625 50.1499 66.4725 49.9699C67.4725 49.8999 68.4725 49.7799 69.4725 49.6599L70.9925 49.4799C71.2425 49.4799 71.5025 49.4099 71.7525 49.3999H72.5225C72.9825 49.3999 73.4225 49.3999 73.8825 49.3999C75.5725 49.5999 76.1025 49.9899 76.3425 50.9799C76.4122 51.1854 76.4657 51.3961 76.5025 51.6099C76.5825 52.2399 75.8425 52.8999 74.6825 53.1299C73.8125 53.3399 72.9425 53.5499 72.0525 53.7799C71.1749 53.9517 70.2859 54.0586 69.3925 54.0999C67.6025 54.2399 65.7625 54.3599 63.9225 54.4599C61.1825 54.6299 58.4025 54.7499 55.6325 54.9699L55.6425 54.9199Z" fill="url(#paint6_linear_305_103)"/>
<path d="M56.3326 43.71C55.3326 44.71 54.3326 45.71 53.3326 46.71L50.2226 49.74C49.4626 50.48 48.8026 51.31 48.0026 52.04L46.8926 53.04C46.3303 53.5545 45.7248 54.0195 45.0826 54.43C44.7584 54.5794 44.4242 54.7064 44.0826 54.81C43.7482 54.8422 43.4107 54.822 43.0826 54.75C42.3801 54.5399 41.7409 54.1585 41.2226 53.64C40.9326 53.4 40.6626 53.14 40.3926 52.88L39.8426 52.28C39.5126 51.93 39.2026 51.56 38.9026 51.2L37.1326 49.03C36.1326 47.76 34.9926 46.55 33.8826 45.39C33.1239 44.6897 32.4217 43.9307 31.7826 43.12C31.1626 42.3 30.5726 41.44 29.9326 40.62C29.5426 40.11 29.7226 39.98 30.4026 40.02C31.4735 40.0915 32.5215 40.3628 33.4926 40.82L34.2326 41.23C34.4837 41.3489 34.7161 41.5039 34.9226 41.69L36.1226 42.79C36.9126 43.53 37.6826 44.28 38.4226 45.04C39.9026 46.56 41.3426 48.13 42.6426 49.67C42.759 49.7817 42.8539 49.9139 42.9226 50.06C42.9833 50.1448 43.0501 50.225 43.1226 50.3C43.1953 50.3803 43.2887 50.4392 43.3926 50.47C43.4926 50.47 43.5726 50.39 43.6626 50.33C43.7441 50.2655 43.821 50.1953 43.8926 50.12L44.3426 49.64L51.5026 41.93L53.3826 40.02L55.4526 38.02C56.0997 37.3398 56.8365 36.7511 57.6426 36.27C58.018 36.0959 58.4205 35.9876 58.8326 35.95C59.2223 36.0962 59.5817 36.3132 59.8926 36.59C60.6037 37.2107 61.2719 37.8789 61.8926 38.59L63.2726 40.08C64.7026 41.59 66.2726 42.9 67.8126 44.31C68.1526 44.62 68.5126 44.89 68.8126 45.22C68.9626 45.37 69.0926 45.52 69.2126 45.65C69.3326 45.78 69.3826 45.95 69.4526 46.08C69.5706 46.3197 69.6515 46.5759 69.6926 46.84C69.7224 47.0683 69.7019 47.3004 69.6326 47.52C69.532 47.7792 69.4046 48.0272 69.2526 48.26C69.1126 48.49 69.0126 48.72 68.8826 48.89C68.5326 49.4 67.2426 49.59 66.1626 48.89C65.7453 48.6666 65.3559 48.3948 65.0026 48.08C64.6326 47.79 64.2726 47.48 63.9226 47.17C63.2126 46.55 62.5326 45.9 61.8626 45.23C61.1926 44.56 60.5326 43.87 59.8626 43.23L58.8626 42.18L58.4726 41.75C58.4726 41.75 58.4726 41.75 58.4726 41.69C58.4726 41.63 58.4726 41.69 58.4026 41.69L58.2326 41.88L57.8726 42.25L56.4226 43.79L56.3326 43.71Z" fill="url(#paint7_linear_305_103)"/>
<path d="M38.2226 63.6401C38.6626 63.3101 39.1026 63.0001 39.5126 62.6401C39.6626 62.5201 39.7426 62.3401 39.9026 62.2301C40.4526 61.8201 41.0426 61.4501 41.5626 61.0301C41.7805 60.835 41.9602 60.601 42.0926 60.3401C42.2726 60.0101 42.3326 59.5901 42.8126 59.4901C43.1126 59.4201 45.2626 61.3701 45.0326 61.7801C44.606 62.4888 43.9701 63.0478 43.2126 63.3801C42.7226 63.5901 42.5226 64.0601 42.2126 64.3801C41.9026 64.7001 41.4226 65.0901 41.0326 65.4401C40.6426 65.7901 40.5426 65.8701 40.3126 66.1001C39.9629 66.4167 39.6292 66.7505 39.3126 67.1001C39.0926 67.3901 39.0126 67.7901 38.7726 68.1001C38.7412 68.1738 38.6972 68.2415 38.6426 68.3001C38.4126 68.5101 38.2026 68.4701 37.7126 68.1801L37.3726 67.9801C37.0533 67.7964 36.8304 67.4822 36.7626 67.1201C36.7024 66.6822 36.7024 66.2381 36.7626 65.8001C36.8678 65.4532 37.0085 65.1181 37.1826 64.8001C37.3926 64.2801 37.8826 63.9901 38.2526 63.6101L38.2226 63.6401Z" fill="url(#paint8_linear_305_103)"/>
<path d="M58.8526 67.2799C58.8098 67.5617 58.7149 67.833 58.5726 68.0799L57.5926 70.1299C57.4226 70.2999 57.3226 70.5899 57.1226 70.7599C57.0841 70.7474 57.0472 70.7306 57.0126 70.7099C55.3826 69.7583 53.8662 68.6243 52.4926 67.3299L51.5826 66.4699L51.1226 66.0599L50.7626 65.5099C50.4526 65.0799 50.0326 64.7999 49.8826 64.5899C49.6651 64.3469 49.5015 64.0606 49.4026 63.7499C49.3426 63.5299 49.7626 63.0899 50.3126 62.7499C50.8626 62.4099 51.6026 62.0699 51.9526 62.2399L52.3926 62.4599H52.4526C52.4526 62.4599 52.4526 62.4599 52.4526 62.5499C52.4955 62.8334 52.5868 63.1074 52.7226 63.3599C52.8031 63.5462 52.9224 63.7133 53.0726 63.8499C53.1826 63.9499 53.2426 63.9299 53.3826 64.0699C53.4148 64.0864 53.445 64.1065 53.4726 64.1299C53.5526 64.1299 53.6726 64.3099 53.7526 64.3199C53.8079 64.2998 53.8588 64.2692 53.9026 64.2299C53.996 64.1463 54.0709 64.0441 54.1226 63.9299C54.2102 63.7372 54.2643 63.5309 54.2826 63.3199C54.3797 62.8617 54.3797 62.3881 54.2826 61.9299C54.1971 61.6157 54.0656 61.3158 53.8926 61.0399C53.7526 60.7399 53.5926 60.4399 53.4726 60.1199C53.4126 59.9799 53.3126 59.8399 53.3426 59.6899C53.4026 59.0999 53.7626 58.8099 54.8026 58.6899C55.0344 58.655 55.2682 58.635 55.5026 58.6299C56.1513 58.5946 56.7984 58.7254 57.3826 59.0099L57.8526 59.3099C57.9721 59.4104 58.0795 59.5245 58.1726 59.6499C58.355 59.8864 58.5125 60.1411 58.6426 60.4099C58.7336 60.6808 58.8038 60.9583 58.8526 61.2399V61.4499L58.9126 61.8699L59.0126 62.6999C59.1639 64.2429 59.1639 65.7969 59.0126 67.3399L58.8526 67.2799Z" fill="url(#paint9_linear_305_103)"/>
<path d="M35.7526 21.72C36.0626 21.72 35.8326 22.11 35.3126 22.8C35.0528 23.1088 34.7497 23.3783 34.4126 23.6C34.1881 23.6705 33.9568 23.7175 33.7226 23.74C33.1807 23.497 32.6531 23.2232 32.1426 22.92C31.7998 22.7303 31.5001 22.4715 31.2626 22.16C30.7626 21.56 30.2626 20.98 29.7626 20.38C29.6576 20.2364 29.5828 20.0732 29.5426 19.9C29.4012 19.3129 29.1001 18.7764 28.6726 18.35C28.6126 18.27 28.5726 18.17 28.4126 18.17C28.2526 18.17 27.2826 16.78 27.2726 16.54C27.1949 15.9495 27.1482 15.3554 27.1326 14.76C27.1326 14.68 27.0626 14.62 27.1326 14.49C27.2768 14.324 27.3082 14.088 27.2126 13.89C27.1547 13.6511 27.1278 13.4057 27.1326 13.16C27.1729 12.9965 27.2405 12.841 27.3326 12.7C27.4026 12.57 27.8026 12.47 27.8526 12.48C27.9026 12.49 28.1626 12.37 28.3226 12.3L28.4826 12.24C28.7345 12.3175 28.9789 12.4179 29.2126 12.54C29.4783 12.6434 29.7386 12.7602 29.9926 12.89C29.9926 12.89 30.3226 13.19 30.7126 13.48C31.1026 13.77 31.3826 14.14 31.4726 14.19C31.5626 14.24 31.5526 14.39 31.5626 14.5C31.5726 14.61 32.6326 15.5 32.6626 15.5C32.7926 15.75 33.0726 15.91 32.9626 16.33C32.9626 16.42 32.9626 16.45 33.0226 16.5C33.3231 16.8968 33.5718 17.3303 33.7626 17.79C33.8954 18.0054 34.0459 18.2095 34.2126 18.4C34.2126 18.4 34.2126 18.5 34.2126 18.55C34.2126 18.6 34.2126 18.69 34.2626 18.73C34.5784 19.2375 34.9471 19.7102 35.3626 20.14C35.4826 20.22 35.5926 20.98 35.7326 21.06C35.8726 21.14 35.6326 21.72 35.7526 21.72Z" fill="url(#paint10_linear_305_103)"/>
<path d="M64.4326 18.71C64.5226 19.02 64.0526 18.98 63.2526 18.71C62.8929 18.5577 62.5562 18.3557 62.2526 18.11C62.1204 17.9229 62.0034 17.7257 61.9026 17.52C61.9026 17.42 62.0326 16.21 62.0526 15.78C62.0699 15.3853 62.1651 14.9979 62.3326 14.64C62.6526 13.92 62.9326 13.18 63.2426 12.46C63.3119 12.2921 63.4178 12.1418 63.5526 12.02C64.0047 11.5967 64.3243 11.0513 64.4726 10.45C64.4726 10.35 64.5726 10.27 64.4726 10.12C64.5471 9.43896 64.7874 8.78658 65.1726 8.22L66.4626 7.05C66.5226 7 66.4626 6.9 66.6926 6.91C66.911 6.95746 67.1326 6.84456 67.2226 6.64C67.3636 6.44046 67.5358 6.26488 67.7326 6.12C67.9035 6.04664 68.0867 6.00594 68.2726 6C68.5154 6.04543 68.7426 6.15213 68.9326 6.31C69.0426 6.48 69.3026 6.51 69.5126 6.6L69.7226 6.7C69.9353 7.27611 70.0699 7.87814 70.1226 8.49C70.1226 8.49 70.0126 8.98 69.9026 9.49C69.7926 10 69.6226 10.49 69.6226 10.62C69.6226 10.75 69.4726 10.8 69.3826 10.88C69.2926 10.96 68.9626 12.44 68.9326 12.49C68.7526 12.76 68.7426 13.1 68.3126 13.25C68.2226 13.25 68.2126 13.35 68.1926 13.41C67.9653 13.9116 67.68 14.3848 67.3426 14.82C67.2053 15.0663 67.0817 15.32 66.9726 15.58C66.9726 15.63 66.8826 15.65 66.8426 15.69C66.8026 15.73 66.7226 15.77 66.7026 15.83C66.3652 16.4109 66.0711 17.0159 65.8226 17.64C65.8226 17.8 65.1026 18.28 65.0626 18.47C65.0226 18.66 64.3926 18.64 64.4326 18.71Z" fill="url(#paint11_linear_305_103)"/>
<path d="M54.2225 44.82L52.0625 46.98C51.8025 47.25 51.5825 47.56 51.3225 47.82C50.3925 48.76 49.4425 49.69 48.5425 50.65C48.1425 51.08 47.7725 51.54 47.4125 52C46.9815 52.6682 46.4034 53.2292 45.7225 53.64C45.4525 53.78 45.3625 53.47 45.2925 53.09C45.1487 52.6995 45.1487 52.2705 45.2925 51.88C45.6602 51.2296 46.0996 50.6225 46.6025 50.07C47.1128 49.4789 47.6536 48.9148 48.2225 48.38C48.8583 47.6925 49.4527 46.9679 50.0025 46.21C50.6625 45.41 51.3425 44.63 52.0025 43.86L53.3125 42.46C53.9725 41.75 54.6625 41.06 55.3125 40.33C55.8025 39.76 56.2025 39.12 56.7225 38.51C56.8425 38.38 56.9425 38.23 57.0625 38.11C57.2434 37.9394 57.4867 37.8513 57.7349 37.8664C57.983 37.8816 58.2138 37.9987 58.3725 38.19L58.6125 38.43C58.7187 38.5786 58.7747 38.7573 58.7725 38.94C58.7891 39.1573 58.7584 39.3756 58.6825 39.58C58.5797 39.8787 58.4239 40.1565 58.2225 40.4C58.0325 40.63 57.8425 40.91 57.6325 41.15C57.2225 41.63 56.7725 42.15 56.3125 42.63L54.2425 44.86L54.2225 44.82Z" fill="url(#paint12_linear_305_103)"/>
<defs>
<linearGradient id="paint0_linear_305_103" x1="51.1163" y1="6" x2="51.1163" y2="95.0169" gradientUnits="userSpaceOnUse">
<stop stop-color="#F0725D"/>
<stop offset="1" stop-color="#9B4232"/>
</linearGradient>
<linearGradient id="paint1_linear_305_103" x1="51.1163" y1="6" x2="51.1163" y2="95.0169" gradientUnits="userSpaceOnUse">
<stop stop-color="#F0725D"/>
<stop offset="1" stop-color="#9B4232"/>
</linearGradient>
<linearGradient id="paint2_linear_305_103" x1="51.1163" y1="6" x2="51.1163" y2="95.0169" gradientUnits="userSpaceOnUse">
<stop stop-color="#F0725D"/>
<stop offset="1" stop-color="#9B4232"/>
</linearGradient>
<linearGradient id="paint3_linear_305_103" x1="51.1163" y1="6" x2="51.1163" y2="95.0169" gradientUnits="userSpaceOnUse">
<stop stop-color="#F0725D"/>
<stop offset="1" stop-color="#9B4232"/>
</linearGradient>
<linearGradient id="paint4_linear_305_103" x1="51.1163" y1="6" x2="51.1163" y2="95.0169" gradientUnits="userSpaceOnUse">
<stop stop-color="#F0725D"/>
<stop offset="1" stop-color="#9B4232"/>
</linearGradient>
<linearGradient id="paint5_linear_305_103" x1="51.1163" y1="6" x2="51.1163" y2="95.0169" gradientUnits="userSpaceOnUse">
<stop stop-color="#F0725D"/>
<stop offset="1" stop-color="#9B4232"/>
</linearGradient>
<linearGradient id="paint6_linear_305_103" x1="51.1163" y1="6" x2="51.1163" y2="95.0169" gradientUnits="userSpaceOnUse">
<stop stop-color="#F0725D"/>
<stop offset="1" stop-color="#9B4232"/>
</linearGradient>
<linearGradient id="paint7_linear_305_103" x1="51.1163" y1="6" x2="51.1163" y2="95.0169" gradientUnits="userSpaceOnUse">
<stop stop-color="#F0725D"/>
<stop offset="1" stop-color="#9B4232"/>
</linearGradient>
<linearGradient id="paint8_linear_305_103" x1="51.1163" y1="6" x2="51.1163" y2="95.0169" gradientUnits="userSpaceOnUse">
<stop stop-color="#F0725D"/>
<stop offset="1" stop-color="#9B4232"/>
</linearGradient>
<linearGradient id="paint9_linear_305_103" x1="51.1163" y1="6" x2="51.1163" y2="95.0169" gradientUnits="userSpaceOnUse">
<stop stop-color="#F0725D"/>
<stop offset="1" stop-color="#9B4232"/>
</linearGradient>
<linearGradient id="paint10_linear_305_103" x1="51.1163" y1="6" x2="51.1163" y2="95.0169" gradientUnits="userSpaceOnUse">
<stop stop-color="#F0725D"/>
<stop offset="1" stop-color="#9B4232"/>
</linearGradient>
<linearGradient id="paint11_linear_305_103" x1="51.1163" y1="6" x2="51.1163" y2="95.0169" gradientUnits="userSpaceOnUse">
<stop stop-color="#F0725D"/>
<stop offset="1" stop-color="#9B4232"/>
</linearGradient>
<linearGradient id="paint12_linear_305_103" x1="51.1163" y1="6" x2="51.1163" y2="95.0169" gradientUnits="userSpaceOnUse">
<stop stop-color="#F0725D"/>
<stop offset="1" stop-color="#9B4232"/>
</linearGradient>
</defs>
</svg>
