<svg width="48" height="48" viewBox="0 0 48 48" fill="none" xmlns="http://www.w3.org/2000/svg">
<path opacity="0.15" d="M9.80005 43.4701C9.80005 43.9608 11.2961 44.4313 13.9591 44.7783C16.6221 45.1252 20.234 45.3201 24 45.3201C27.7661 45.3201 31.3779 45.1252 34.041 44.7783C36.704 44.4313 38.2001 43.9608 38.2001 43.4701C38.2001 42.9795 36.704 42.5089 34.041 42.162C31.3779 41.815 27.7661 41.6201 24 41.6201C20.234 41.6201 16.6221 41.815 13.9591 42.162C11.2961 42.5089 9.80005 42.9795 9.80005 43.4701Z" fill="#45413C"/>
<path d="M7.48999 2.68018H40.52V42.8302H7.48999V2.68018Z" fill="#DEBB7E"/>
<path d="M37 2.67982H11C10.5405 2.67586 10.0847 2.76294 9.65904 2.93606C9.23336 3.10917 8.84617 3.36487 8.51984 3.68842C8.19351 4.01196 7.93449 4.39693 7.75773 4.82111C7.58097 5.24529 7.48997 5.70028 7.48999 6.15982V10.1598C7.49129 9.70112 7.58326 9.24721 7.76061 8.82419C7.93796 8.40117 8.19719 8.01738 8.52339 7.69489C8.84959 7.37241 9.23632 7.1176 9.66135 6.94511C10.0864 6.77262 10.5413 6.68586 11 6.68982H37C37.4578 6.68982 37.9112 6.78016 38.334 6.95567C38.7569 7.13118 39.141 7.38841 39.4643 7.71262C39.7875 8.03683 40.0437 8.42164 40.218 8.84501C40.3923 9.26838 40.4813 9.72198 40.48 10.1798V6.17982C40.4826 5.72114 40.3946 5.26646 40.2209 4.84194C40.0471 4.41741 39.7912 4.03142 39.4678 3.70615C39.1444 3.38088 38.7599 3.12275 38.3364 2.94662C37.9128 2.77048 37.4587 2.67981 37 2.67982Z" fill="#F0D5A8"/>
<path d="M7.48999 2.68018H40.52V42.8302H7.48999V2.68018Z" stroke="#45413C" stroke-linecap="round" stroke-linejoin="round"/>
<path d="M11.64 8.7002H36.36V38.7402H11.64V8.7002Z" fill="#FFFEF2"/>
<path d="M35.1301 8.7002H12.8701C12.5429 8.70283 12.2301 8.83464 11.9997 9.0669C11.7693 9.29916 11.64 9.61305 11.6401 9.9402V13.8802C11.6387 13.7178 11.6696 13.5568 11.7308 13.4064C11.792 13.256 11.8824 13.1193 11.9968 13.004C12.1111 12.8887 12.2471 12.7972 12.397 12.7348C12.5469 12.6723 12.7077 12.6402 12.8701 12.6402H35.1301C35.2924 12.6402 35.4532 12.6723 35.6031 12.7348C35.753 12.7972 35.889 12.8887 36.0034 13.004C36.1177 13.1193 36.2081 13.256 36.2693 13.4064C36.3305 13.5568 36.3614 13.7178 36.3601 13.8802V9.9402C36.3601 9.61305 36.2308 9.29916 36.0004 9.0669C35.77 8.83464 35.4572 8.70283 35.1301 8.7002Z" fill="white"/>
<path d="M11.64 8.7002H36.36V38.7402H11.64V8.7002Z" stroke="#45413C" stroke-linecap="round" stroke-linejoin="round"/>
<path d="M26 6.41988C26 5.87884 25.7851 5.35996 25.4025 4.97739C25.0199 4.59481 24.501 4.37988 23.96 4.37988C23.419 4.37988 22.9001 4.59481 22.5175 4.97739C22.1349 5.35996 21.92 5.87884 21.92 6.41988H18.48C18.1529 6.42252 17.84 6.55433 17.6096 6.78659C17.3793 7.01885 17.25 7.33274 17.25 7.65988V9.59988C17.25 9.9261 17.3796 10.239 17.6103 10.4696C17.8409 10.7003 18.1538 10.8299 18.48 10.8299H29.48C29.6449 10.8352 29.8091 10.8074 29.963 10.748C30.1169 10.6886 30.2572 10.5988 30.3757 10.4841C30.4942 10.3693 30.5884 10.2319 30.6527 10.08C30.717 9.92811 30.7501 9.76483 30.75 9.59988V7.65988C30.75 7.33274 30.6207 7.01885 30.3904 6.78659C30.16 6.55433 29.8471 6.42252 29.52 6.41988H26Z" fill="#DAEDF7"/>
<path d="M29.52 6.41988H26C26 5.87884 25.7851 5.35996 25.4025 4.97739C25.0199 4.59481 24.501 4.37988 23.96 4.37988C23.419 4.37988 22.9001 4.59481 22.5175 4.97739C22.1349 5.35996 21.92 5.87884 21.92 6.41988H18.48C18.1529 6.42252 17.84 6.55433 17.6096 6.78659C17.3793 7.01885 17.25 7.33274 17.25 7.65988V9.65988C17.2629 9.34241 17.3982 9.04225 17.6275 8.82229C17.8568 8.60232 18.1623 8.47962 18.48 8.47988H22C22 7.93884 22.2149 7.41996 22.5975 7.03738C22.9801 6.65481 23.499 6.43988 24.04 6.43988C24.581 6.43988 25.0999 6.65481 25.4825 7.03738C25.8651 7.41996 26.08 7.93884 26.08 8.47988H29.56C29.8777 8.47962 30.1832 8.60232 30.4125 8.82229C30.6418 9.04225 30.7771 9.34241 30.79 9.65988V7.65988C30.79 7.49449 30.757 7.33076 30.6928 7.17832C30.6286 7.02589 30.5346 6.88784 30.4163 6.77229C30.2979 6.65675 30.1577 6.56604 30.0037 6.50552C29.8498 6.445 29.6853 6.41588 29.52 6.41988Z" fill="#E8F4FA"/>
<path d="M15.39 14.6199H21.64M15.39 32.6799H21.64M15.39 18.3199H29.9M15.39 21.6399H29.9M15.39 25.2699H29.9M26 6.41988C26 5.87884 25.7851 5.35996 25.4025 4.97739C25.0199 4.59481 24.5011 4.37988 23.96 4.37988C23.419 4.37988 22.9001 4.59481 22.5175 4.97739C22.1349 5.35996 21.92 5.87884 21.92 6.41988H18.48C18.1529 6.42252 17.84 6.55433 17.6097 6.78659C17.3793 7.01885 17.25 7.33274 17.25 7.65988V9.59988C17.25 9.9261 17.3796 10.239 17.6103 10.4696C17.8409 10.7003 18.1538 10.8299 18.48 10.8299H29.48C29.6449 10.8352 29.8091 10.8074 29.963 10.748C30.1169 10.6886 30.2572 10.5988 30.3757 10.4841C30.4942 10.3693 30.5884 10.2319 30.6527 10.08C30.717 9.92811 30.7501 9.76483 30.75 9.59988V7.65988C30.75 7.33274 30.6208 7.01885 30.3904 6.78659C30.16 6.55433 29.8471 6.42252 29.52 6.41988H26Z" stroke="#45413C" stroke-linecap="round" stroke-linejoin="round"/>
</svg>
