<svg width="672" height="800" viewBox="0 0 672 800" fill="none" xmlns="http://www.w3.org/2000/svg">
<path d="M656.693 223.235C655.865 218.959 652.832 215.236 647.866 213.994C606.491 203.926 558.358 210.684 516.152 210.132C455.329 210.132 395.058 210.132 334.235 210.132C271.756 210.132 209.278 217.718 147.627 226.131C105.424 232.062 56.4616 232.476 15.0853 245.992L15.4991 246.406C9.98224 248.061 6.67214 253.578 6.25837 258.681C-3.80986 278.128 2.94827 313.573 5.01708 331.641C6.67213 345.571 7.91342 367.5 17.2921 379.362C15.637 384.878 16.8783 390.809 22.3951 394.119C42.2558 405.567 69.702 405.98 94.1141 405.567C119.905 529.696 141.421 654.514 165.833 778.643C167.074 785.815 174.66 790.504 181.418 790.504C215.209 790.504 248.999 790.09 282.238 789.264C282.238 789.678 282.652 790.092 282.652 790.504C288.169 804.848 307.616 801.953 309.271 788.435C375.473 786.782 441.814 784.574 508.016 781.679C515.188 781.265 521.946 776.989 523.602 769.816C541.393 697.27 553.117 622.516 562.909 548.315C568.012 508.18 593.665 409.015 560.84 370.259C591.183 368.19 622.076 366.397 652.418 365.983C666.348 365.569 671.038 352.053 667.175 342.399C671.174 313.85 676.968 240.89 656.693 223.235ZM85.6995 374.258C69.7007 374.672 53.1501 375.086 37.1513 373.431C36.7375 370.121 35.4962 366.259 35.0825 363.776C32.5999 351.915 32.1861 339.364 31.2207 327.089C30.3932 314.401 30.3932 301.712 30.8069 289.161C30.8069 283.644 32.0482 278.127 32.462 272.335C50.2538 272.335 70.3903 267.232 84.7341 265.99C138.799 260.887 192.312 253.715 246.378 248.75C248.86 273.714 252.308 298.126 254.791 323.09C255.618 331.917 253.549 355.225 261.549 365.294C202.657 368.742 144.454 373.019 85.6995 374.258ZM192.45 747.749C169.693 633 151.074 517.283 116.456 405.43C166.659 405.43 217.276 401.567 267.479 397.431C247.619 473.839 261.135 678.1 275.479 760.853C234.654 762.094 195.071 760.025 192.45 747.749ZM529.254 558.66C520.84 621.139 509.807 683.617 496.292 745.267C492.43 763.059 482.776 750.784 461.26 751.613C440.985 752.441 420.712 752.853 400.437 753.682C402.919 662.102 409.262 570.937 406.781 479.357C406.367 457.428 413.127 409.293 399.195 385.709C443.882 381.019 489.12 376.468 533.808 373.02C532.979 375.916 533.393 379.364 534.635 382.261C557.527 427.497 535.599 511.904 529.254 558.66ZM393.816 351.917C390.506 332.884 388.3 313.575 386.645 294.128C386.231 287.783 382.368 250.269 384.162 242.269C422.09 242.269 460.156 243.097 497.671 242.683C541.116 242.683 590.492 249.028 633.936 241.856C634.351 243.097 634.763 244.338 635.177 245.717C639.04 257.165 640.279 270.129 641.109 282.404C642.763 299.231 644.005 316.195 645.384 333.021C561.804 334.125 477.397 343.503 393.816 351.917Z" fill="url(#paint0_linear_307_188)"/>
<path d="M356.716 124.899C356.716 118.968 352.44 112.624 346.234 111.382C325.13 107.107 298.925 105.865 280.858 118.968C267.342 128.622 265.686 142.552 269.824 155.655C267.755 164.896 268.169 174.688 268.997 183.929C269.824 190.273 272.858 195.376 279.065 197.445C290.926 200.755 303.063 199.928 315.338 197.859C320.441 197.031 327.199 195.376 332.578 192.756C340.578 195.238 349.406 192.342 352.025 183.515C357.957 165.308 357.128 144.208 356.716 124.899Z" fill="url(#paint1_linear_307_188)"/>
<path d="M243.619 110.14C243.205 109.312 242.378 108.898 241.55 108.071C241.55 107.657 241.55 107.243 241.137 107.243C222.931 73.8664 189.692 36.7657 149.143 33.8693C109.422 30.973 87.0787 61.7294 79.9068 97.5888C73.1487 130.138 71.0799 185.858 108.594 200.616C143.213 214.546 187.485 197.72 223.758 199.375C231.758 199.788 238.102 192.616 238.102 185.031C238.93 165.308 255.342 127.38 243.619 110.14ZM210.656 169.999C189.968 170.413 169.28 172.895 148.178 174.688C149.419 170.826 148.178 166.275 143.902 162.827C143.902 162.827 143.488 162.413 143.075 162.413C163.763 156.069 186.934 157.724 208.035 161.586C209.277 161.999 210.518 161.586 211.897 161.586C211.07 164.482 210.656 167.102 210.656 169.999ZM215.345 139.242C202.243 128.76 189.14 118.968 176.038 108.486C190.795 108.9 204.725 114.003 218.655 122.83C217.828 128.209 216.587 133.726 215.345 139.242Z" fill="url(#paint2_linear_307_188)"/>
<path d="M580.424 47.249C515.049 -76.8799 342.786 71.2473 384.576 174.274C385.403 176.757 387.472 178.136 390.093 179.377C390.093 179.791 390.093 180.205 389.679 180.205C389.264 182.688 390.506 184.894 392.575 186.549C393.403 187.791 394.644 189.032 395.885 190.411C433.814 216.616 508.981 191.239 544.425 171.378C592.973 144.208 605.663 94.8318 580.424 47.249ZM403.056 154C403.885 146.828 405.125 139.242 407.333 131.657C414.09 125.726 420.435 119.382 426.78 114.417C438.642 105.176 451.192 97.1764 464.708 91.2458C454.088 107.658 438.503 121.175 423.745 134.277C416.987 140.07 409.402 146.414 403.056 154ZM452.983 170.825C441.536 171.652 429.813 169.997 418.365 168.756C419.605 167.101 421.261 165.86 422.641 164.067C449.259 151.792 474.913 138.276 501.118 124.759C496.428 137.862 492.291 151.378 488.429 164.481C476.569 167.93 464.707 169.585 452.983 170.825Z" fill="url(#paint3_linear_307_188)"/>
<defs>
<linearGradient id="paint0_linear_307_188" x1="336.001" y1="0.000244141" x2="336.001" y2="800" gradientUnits="userSpaceOnUse">
<stop stop-color="#F0725D"/>
<stop offset="1" stop-color="#9B4232"/>
</linearGradient>
<linearGradient id="paint1_linear_307_188" x1="336.001" y1="0.000244141" x2="336.001" y2="800" gradientUnits="userSpaceOnUse">
<stop stop-color="#F0725D"/>
<stop offset="1" stop-color="#9B4232"/>
</linearGradient>
<linearGradient id="paint2_linear_307_188" x1="336.001" y1="0.000244141" x2="336.001" y2="800" gradientUnits="userSpaceOnUse">
<stop stop-color="#F0725D"/>
<stop offset="1" stop-color="#9B4232"/>
</linearGradient>
<linearGradient id="paint3_linear_307_188" x1="336.001" y1="0.000244141" x2="336.001" y2="800" gradientUnits="userSpaceOnUse">
<stop stop-color="#F0725D"/>
<stop offset="1" stop-color="#9B4232"/>
</linearGradient>
</defs>
</svg>
