<svg width="48" height="48" viewBox="0 0 48 48" fill="none" xmlns="http://www.w3.org/2000/svg">
<path opacity="0.15" d="M6.5 44.5C6.5 44.8978 8.34374 45.2794 11.6256 45.5607C14.9075 45.842 19.3587 46 24 46C28.6413 46 33.0925 45.842 36.3744 45.5607C39.6563 45.2794 41.5 44.8978 41.5 44.5C41.5 44.1022 39.6563 43.7206 36.3744 43.4393C33.0925 43.158 28.6413 43 24 43C19.3587 43 14.9075 43.158 11.6256 43.4393C8.34374 43.7206 6.5 44.1022 6.5 44.5Z" fill="#45413C"/>
<path d="M22.68 26.7798L5 20.5898V37.3798C5.00082 37.5866 5.06569 37.7879 5.18567 37.9563C5.30566 38.1246 5.47486 38.2516 5.67 38.3198L22.67 44.3198C23.5261 44.6102 24.4539 44.6102 25.31 44.3198L42.31 38.3198C42.5051 38.2516 42.6743 38.1246 42.7943 37.9563C42.9143 37.7879 42.9792 37.5866 42.98 37.3798V20.5898L25.32 26.7798C24.4654 27.0786 23.5346 27.0786 22.68 26.7798Z" fill="#FF866E"/>
<path d="M25.32 26.7798C24.4654 27.0786 23.5346 27.0786 22.68 26.7798L5 20.5898V25.5898L22.68 31.7798C23.5346 32.0786 24.4654 32.0786 25.32 31.7798L43 25.5898V20.5898L25.32 26.7798Z" fill="#FF6242"/>
<path d="M22.68 26.7798L5 20.5898V37.3798C5.00082 37.5866 5.06569 37.7879 5.18567 37.9563C5.30566 38.1246 5.47486 38.2516 5.67 38.3198L22.67 44.3198C23.5261 44.6102 24.4539 44.6102 25.31 44.3198L42.31 38.3198C42.5051 38.2516 42.6743 38.1246 42.7943 37.9563C42.9143 37.7879 42.9792 37.5866 42.98 37.3798V20.5898L25.32 26.7798C24.4654 27.0786 23.5346 27.0786 22.68 26.7798Z" stroke="#45413C" stroke-linecap="round" stroke-linejoin="round"/>
<path d="M24 42.7402V29.2402" stroke="#E04122" stroke-linecap="round" stroke-linejoin="round"/>
<path d="M22.68 19.7802L4 13.2402V19.5302C4.00082 19.737 4.06569 19.9383 4.18567 20.1067C4.30566 20.275 4.47486 20.402 4.67 20.4702L22.67 26.7802C23.5246 27.079 24.4554 27.079 25.31 26.7802L43.31 20.4702C43.5051 20.402 43.6743 20.275 43.7943 20.1067C43.9143 19.9383 43.9792 19.737 43.98 19.5302V13.2402L25.32 19.7802C24.4654 20.079 23.5346 20.079 22.68 19.7802Z" fill="#FF866E"/>
<path d="M25.32 19.7802C24.4654 20.079 23.5346 20.079 22.68 19.7802L4 13.2402V16.2402L22.68 22.7802C23.5346 23.079 24.4654 23.079 25.32 22.7802L44 16.2402V13.2402L25.32 19.7802Z" fill="#FFA694"/>
<path d="M22.68 19.7802L4 13.2402V19.5302C4.00082 19.737 4.06569 19.9383 4.18567 20.1067C4.30566 20.275 4.47486 20.402 4.67 20.4702L22.67 26.7802C23.5246 27.079 24.4554 27.079 25.31 26.7802L43.31 20.4702C43.5051 20.402 43.6743 20.275 43.7943 20.1067C43.9143 19.9383 43.9792 19.737 43.98 19.5302V13.2402L25.32 19.7802C24.4654 20.079 23.5346 20.079 22.68 19.7802Z" stroke="#45413C" stroke-linecap="round" stroke-linejoin="round"/>
<path d="M4 13.2402L22.68 6.70015C23.5346 6.40138 24.4654 6.40138 25.32 6.70015L44 13.2402L25.32 19.7802C24.4654 20.0789 23.5346 20.0789 22.68 19.7802L4 13.2402Z" fill="#FF866E" stroke="#45413C" stroke-linecap="round" stroke-linejoin="round"/>
<path d="M28.16 7.7002L8 14.6402V21.6402L17 24.7902V17.7902L37.16 10.8502L28.16 7.7002Z" fill="#EDDBFF" stroke="#45413C" stroke-linecap="round" stroke-linejoin="round"/>
<path d="M10.6699 15.5801L15.2199 17.1701" stroke="#BF8DF2" stroke-linecap="round" stroke-linejoin="round"/>
<path d="M9 21.9902V39.4902L18 42.6402V25.1402L9 21.9902Z" fill="#EDDBFF"/>
<path d="M9 21.9902V26.9902L18 30.1402V25.1402L9 21.9902Z" fill="#DABFF5"/>
<path d="M9 21.9902V39.4902L18 42.6402V25.1402L9 21.9902Z" stroke="#45413C" stroke-linecap="round" stroke-linejoin="round"/>
<path d="M19.8401 7.7002L40.0001 14.6402V21.6402L31.0001 24.7902V17.7902L10.8401 10.8502L19.8401 7.7002Z" fill="#EDDBFF" stroke="#45413C" stroke-linecap="round" stroke-linejoin="round"/>
<path d="M37.33 15.5801L32.78 17.1701" stroke="#BF8DF2" stroke-linecap="round" stroke-linejoin="round"/>
<path d="M39 21.9902V39.4902L30 42.6402V25.1402L39 21.9902Z" fill="#EDDBFF"/>
<path d="M39 21.9902V26.9902L30 30.1402V25.1402L39 21.9902Z" fill="#DABFF5"/>
<path d="M39 21.9902V39.4902L30 42.6402V25.1402L39 21.9902Z" stroke="#45413C" stroke-linecap="round" stroke-linejoin="round"/>
<path d="M21 14.2901L22.5 11.7901C22.5 11.7901 16.31 3.71006 9.50003 5.68007C8.84627 5.86944 8.27633 6.2755 7.88382 6.83156C7.4913 7.38762 7.29954 8.06063 7.34003 8.74006L7.54003 12.0001L21 14.2901Z" fill="#DABFF5" stroke="#45413C" stroke-linecap="round" stroke-linejoin="round"/>
<path d="M20.9999 14.29C20.9999 14.29 15.4199 16.58 8.09992 12.87C7.91466 12.7832 7.76048 12.6417 7.65817 12.4645C7.55587 12.2873 7.51037 12.083 7.52781 11.8792C7.54525 11.6754 7.62479 11.4818 7.75571 11.3246C7.88662 11.1673 8.06261 11.0541 8.25992 11C10.4824 10.3438 12.8413 10.3032 15.085 10.8827C17.3287 11.4621 19.3731 12.6397 20.9999 14.29Z" fill="#BF8DF2" stroke="#45413C" stroke-linecap="round" stroke-linejoin="round"/>
<path d="M27.05 14.2901L25.55 11.7901C25.55 11.7901 31.74 3.71006 38.55 5.68007C39.1964 5.87689 39.7573 6.28611 40.1421 6.84147C40.5268 7.39683 40.7129 8.0658 40.67 8.74006L40.46 12.0001L27.05 14.2901Z" fill="#DABFF5" stroke="#45413C" stroke-linecap="round" stroke-linejoin="round"/>
<path d="M27.05 14.2898C27.05 14.2898 32.5801 16.5798 39.9001 12.8698C40.0853 12.783 40.2395 12.6415 40.3418 12.4643C40.4441 12.2872 40.4896 12.0829 40.4722 11.879C40.4547 11.6752 40.3752 11.4816 40.2443 11.3244C40.1133 11.1672 39.9374 11.0539 39.7401 10.9998C37.5247 10.3533 35.1758 10.3178 32.9419 10.8969C30.708 11.4761 28.6722 12.6484 27.05 14.2898Z" fill="#BF8DF2" stroke="#45413C" stroke-linecap="round" stroke-linejoin="round"/>
<path d="M26.38 13.4102C26.38 13.4102 33.66 15.6502 35.24 21.0102L31.65 20.3902L30.53 24.0002C30.53 24.0002 27.14 15.8402 24 14.6702L26.38 13.4102ZM21.62 13.4102C21.62 13.4102 14.34 15.6502 12.76 21.0102L16.35 20.3902L17.47 24.0002C17.47 24.0002 20.86 15.8102 24 14.6402L21.62 13.4102Z" fill="#BF8DF2" stroke="#45413C" stroke-linecap="round" stroke-linejoin="round"/>
<path d="M19.5 12.1699C19.5 13.0982 19.9741 13.9884 20.818 14.6448C21.6619 15.3012 22.8065 15.6699 24 15.6699C25.1935 15.6699 26.3381 15.3012 27.182 14.6448C28.0259 13.9884 28.5 13.0982 28.5 12.1699C28.5 11.2417 28.0259 10.3514 27.182 9.69505C26.3381 9.03867 25.1935 8.66992 24 8.66992C22.8065 8.66992 21.6619 9.03867 20.818 9.69505C19.9741 10.3514 19.5 11.2417 19.5 12.1699Z" fill="#BF8DF2"/>
<path d="M24 10.6699C24.8821 10.6159 25.7605 10.8245 26.524 11.2695C27.2876 11.7145 27.9022 12.3758 28.29 13.1699C28.4199 12.852 28.491 12.5132 28.5 12.1699C28.5 10.2299 26.5 8.66992 24 8.66992C21.5 8.66992 19.5 10.2299 19.5 12.1699C19.509 12.5132 19.5801 12.852 19.71 13.1699C20.0978 12.3758 20.7124 11.7145 21.476 11.2695C22.2395 10.8245 23.1179 10.6159 24 10.6699Z" fill="#DABFF5"/>
<path d="M19.5 12.1699C19.5 13.0982 19.9741 13.9884 20.818 14.6448C21.6619 15.3012 22.8065 15.6699 24 15.6699C25.1935 15.6699 26.3381 15.3012 27.182 14.6448C28.0259 13.9884 28.5 13.0982 28.5 12.1699C28.5 11.2417 28.0259 10.3514 27.182 9.69505C26.3381 9.03867 25.1935 8.66992 24 8.66992C22.8065 8.66992 21.6619 9.03867 20.818 9.69505C19.9741 10.3514 19.5 11.2417 19.5 12.1699Z" stroke="#45413C" stroke-linecap="round" stroke-linejoin="round"/>
</svg>
