<svg width="48" height="48" viewBox="0 0 48 48" fill="none" xmlns="http://www.w3.org/2000/svg">
<path opacity="0.15" d="M5.06006 44.5C5.06006 44.697 5.42761 44.892 6.14173 45.074C6.85585 45.256 7.90255 45.4214 9.22207 45.5607C10.5416 45.6999 12.1081 45.8104 13.8321 45.8858C15.5562 45.9612 17.404 46 19.2701 46C21.1361 46 22.984 45.9612 24.708 45.8858C26.432 45.8104 27.9985 45.6999 29.318 45.5607C30.6376 45.4214 31.6843 45.256 32.3984 45.074C33.1125 44.892 33.4801 44.697 33.4801 44.5C33.4801 44.1022 31.9829 43.7206 29.318 43.4393C26.6532 43.158 23.0388 43 19.2701 43C15.5013 43 11.887 43.158 9.22207 43.4393C6.55718 43.7206 5.06006 44.1022 5.06006 44.5Z" fill="#45413C"/>
<path d="M19.1101 30.7601L6.11008 24.3701L4.52008 37.3001C4.50058 37.4588 4.53164 37.6197 4.60884 37.7597C4.68605 37.8997 4.80546 38.0119 4.95008 38.0801L17.5001 44.2401C18.1214 44.5405 18.8253 44.625 19.5001 44.4801L33.1501 41.4801C33.3064 41.4427 33.4475 41.3585 33.5547 41.2388C33.6619 41.1191 33.7301 40.9696 33.7501 40.8101L35.3001 27.8801L21.1501 31.0001C20.4625 31.1527 19.7435 31.0681 19.1101 30.7601Z" fill="#FF866E"/>
<path d="M21.1501 30.9999C20.4741 31.1401 19.7707 31.0522 19.1501 30.7499L6.1501 24.3599L5.6001 28.2199L18.6501 34.6099C19.2703 34.9136 19.9742 35.0016 20.6501 34.8599L34.8401 31.7199L35.3001 27.8699L21.1501 30.9999Z" fill="#FF6242"/>
<path d="M19.1101 30.7601L6.11008 24.3701L4.52008 37.3001C4.50058 37.4588 4.53164 37.6197 4.60884 37.7597C4.68605 37.8997 4.80546 38.0119 4.95008 38.0801L17.5001 44.2401C18.1214 44.5405 18.8253 44.625 19.5001 44.4801L33.1501 41.4801C33.3064 41.4427 33.4475 41.3585 33.5547 41.2388C33.6619 41.1191 33.7301 40.9696 33.7501 40.8101L35.3001 27.8801L21.1501 31.0001C20.4625 31.1527 19.7435 31.0681 19.1101 30.7601Z" stroke="#45413C" stroke-linecap="round" stroke-linejoin="round"/>
<path d="M18.6599 43.1798L19.8999 32.7798" stroke="#E04122" stroke-linecap="round" stroke-linejoin="round"/>
<path d="M35.3301 27.8702L22.3301 21.4702C21.7083 21.1713 21.0049 21.0869 20.3301 21.2302L6.06006 24.3702L19.1101 30.7602C19.7307 31.0625 20.4341 31.1504 21.1101 31.0102L35.3301 27.8702Z" fill="#E04122" stroke="#45413C" stroke-linecap="round" stroke-linejoin="round"/>
<path d="M9.0199 25.8101L7.3999 39.2901L14.0399 42.5501L15.6599 29.0701L9.0199 25.8101Z" fill="#EDDBFF"/>
<path d="M9.02005 25.8101L8.55005 29.6601L15.2 32.9201L15.66 29.0701L9.02005 25.8101Z" fill="#DABFF5"/>
<path d="M9.0199 25.8101L7.3999 39.2901L14.0399 42.5501L15.6599 29.0701L9.0199 25.8101Z" stroke="#45413C" stroke-linecap="round" stroke-linejoin="round"/>
<path d="M32.12 28.5801L30.51 42.0601L23.29 43.6501L24.9 30.1801L32.12 28.5801Z" fill="#EDDBFF"/>
<path d="M32.1199 28.5801L31.6599 32.4301L24.4399 34.0301L24.8999 30.1801L32.1199 28.5801Z" fill="#DABFF5"/>
<path d="M32.12 28.5801L30.51 42.0601L23.29 43.6501L24.9 30.1801L32.12 28.5801Z" stroke="#45413C" stroke-linecap="round" stroke-linejoin="round"/>
<path d="M16.53 18.9298L1.22998 17.6898L2.46998 22.4098C2.50989 22.5656 2.59819 22.7048 2.72218 22.8072C2.84617 22.9096 2.99945 22.9701 3.15998 22.9798L17.91 24.1798C18.6166 24.2412 19.3227 24.0576 19.91 23.6598L32.17 15.3998C32.3013 15.308 32.4021 15.1788 32.4591 15.029C32.5162 14.8793 32.5269 14.7158 32.49 14.5598L31.25 9.83984L18.52 18.4098C17.9326 18.7988 17.2326 18.9817 16.53 18.9298Z" fill="#FF866E"/>
<path d="M18.52 18.4098C17.9298 18.801 17.2259 18.984 16.52 18.9298L1.22998 17.6898L1.81998 19.9398L17.12 21.1798C17.8259 21.2332 18.5295 21.0503 19.12 20.6598L31.85 12.0898L31.26 9.83984L18.52 18.4098Z" fill="#FFA694"/>
<path d="M16.53 18.9298L1.22998 17.6898L2.46998 22.4098C2.50989 22.5656 2.59819 22.7048 2.72218 22.8072C2.84617 22.9096 2.99945 22.9701 3.15998 22.9798L17.91 24.1798C18.6166 24.2412 19.3227 24.0576 19.91 23.6598L32.17 15.3998C32.3013 15.308 32.4021 15.1788 32.4591 15.029C32.5162 14.8793 32.5269 14.7158 32.49 14.5598L31.25 9.83984L18.52 18.4098C17.9326 18.7988 17.2326 18.9817 16.53 18.9298Z" stroke="#45413C" stroke-linecap="round" stroke-linejoin="round"/>
<path d="M1.22998 17.6899L14 9.10994C14.5881 8.71498 15.2945 8.53486 16 8.59994L31.3 9.83994L18.52 18.4099C17.9298 18.8011 17.2259 18.9841 16.52 18.9299L1.22998 17.6899Z" fill="#FF866E" stroke="#45413C" stroke-linecap="round" stroke-linejoin="round"/>
<path d="M18.28 8.77979L4.51001 17.9498L5.88001 23.2098L13.26 23.7998L11.88 18.5498L25.65 9.37979L18.28 8.77979Z" fill="#EDDBFF" stroke="#45413C" stroke-linecap="round" stroke-linejoin="round"/>
<path d="M6.69995 18.1299L10.42 18.4299" stroke="#BF8DF2" stroke-linecap="round" stroke-linejoin="round"/>
<path d="M12.0299 10.4199L28.5199 11.6699L29.8999 16.9199L23.7599 21.0499L22.3899 15.7999L5.8999 14.5499L12.0299 10.4199Z" fill="#EDDBFF" stroke="#45413C" stroke-linecap="round" stroke-linejoin="round"/>
<path d="M26.7001 12.8999L23.6101 14.9799" stroke="#BF8DF2" stroke-linecap="round" stroke-linejoin="round"/>
<path d="M18.9001 13.6002L17.0601 12.2902C17.0601 12.2902 19.0601 4.29022 24.5201 3.63022C25.0453 3.55903 25.579 3.67143 26.0309 3.9484C26.4827 4.22536 26.8251 4.6499 27.0001 5.15022L27.8601 7.50022L18.9001 13.6002Z" fill="#DABFF5" stroke="#45413C" stroke-linecap="round" stroke-linejoin="round"/>
<path d="M18.8999 13.6C18.8999 13.6 23.6399 13.23 27.7099 8.31997C27.8308 8.20168 27.91 8.0473 27.9355 7.88009C27.961 7.71288 27.9315 7.5419 27.8514 7.39293C27.7712 7.24397 27.6449 7.12509 27.4913 7.05421C27.3377 6.98333 27.1652 6.96429 26.9999 6.99997C25.1827 7.2747 23.4726 8.03202 22.0479 9.19291C20.6231 10.3538 19.536 11.8758 18.8999 13.6Z" fill="#BF8DF2" stroke="#45413C" stroke-linecap="round" stroke-linejoin="round"/>
<path d="M14.0001 15.0002L14.8101 12.8902C14.8101 12.8902 9.0001 7.56022 4.0501 10.0002C3.5846 10.2379 3.21345 10.6264 2.99731 11.1023C2.78116 11.5782 2.73279 12.1133 2.8601 12.6202L3.4501 15.0602L14.0001 15.0002Z" fill="#DABFF5" stroke="#45413C" stroke-linecap="round" stroke-linejoin="round"/>
<path d="M13.9999 14.9998C13.9999 14.9998 10.0999 17.5098 3.99993 15.6798C3.84838 15.6365 3.71348 15.5483 3.61303 15.4269C3.51258 15.3054 3.45127 15.1564 3.4372 14.9994C3.42312 14.8424 3.45694 14.6849 3.53419 14.5475C3.61143 14.4101 3.72849 14.2993 3.86993 14.2298C5.47077 13.432 7.25766 13.0824 9.04111 13.218C10.8246 13.3535 12.5381 13.9692 13.9999 14.9998Z" fill="#BF8DF2" stroke="#45413C" stroke-linecap="round" stroke-linejoin="round"/>
<path d="M14.4999 14.2999C14.4999 14.2999 9.39989 17.2999 9.13989 21.5899L11.7399 20.4899L13.2299 23.0499C13.2299 23.0499 14.3499 16.2699 16.5199 14.8299L14.4999 14.2999ZM18.0599 13.4199C18.0599 13.4199 23.9599 13.6699 26.1999 17.4199L23.3899 17.6599L23.2599 20.6099C23.2599 20.6099 19.1099 15.1299 16.5199 14.8599L18.0599 13.4199Z" fill="#BF8DF2" stroke="#45413C" stroke-linecap="round" stroke-linejoin="round"/>
<path d="M19.4099 12.07C19.7899 13.52 18.5799 15.07 16.7199 15.58C14.8599 16.09 13.0299 15.29 12.6599 13.84C12.2899 12.39 13.4799 10.84 15.3499 10.33C17.2199 9.81996 18.9999 10.62 19.4099 12.07Z" fill="#BF8DF2"/>
<path d="M15.7399 11.83C16.3879 11.6114 17.0862 11.5897 17.7465 11.7676C18.4068 11.9456 18.9996 12.3153 19.4499 12.83C19.4997 12.5656 19.4997 12.2943 19.4499 12.03C19.0699 10.58 17.2499 9.79998 15.3899 10.29C13.5299 10.78 12.3199 12.35 12.6999 13.8C12.7681 14.0576 12.8871 14.299 13.0499 14.51C13.1894 13.8502 13.5181 13.2453 13.9958 12.7694C14.4736 12.2934 15.0796 11.967 15.7399 11.83Z" fill="#DABFF5"/>
<path d="M19.4099 12.07C19.7899 13.52 18.5799 15.07 16.7199 15.58C14.8599 16.09 13.0299 15.29 12.6599 13.84C12.2899 12.39 13.4799 10.84 15.3499 10.33C17.2199 9.81996 18.9999 10.62 19.4099 12.07Z" stroke="#45413C" stroke-linecap="round" stroke-linejoin="round"/>
<path d="M29.3299 26.4801C28.9197 27.1294 28.3555 27.6672 27.6873 28.0458C27.0191 28.4244 26.2677 28.632 25.4999 28.6501L24.1399 26.2601C24.9135 26.2449 25.6713 26.0378 26.3451 25.6573C27.0188 25.2768 27.5875 24.7348 27.9999 24.0801L29.3299 26.4801Z" fill="#00F5BC" stroke="#45413C" stroke-linecap="round" stroke-linejoin="round"/>
<path d="M45 9.18022C45.0261 9.96075 44.8568 10.7354 44.5075 11.4339C44.1582 12.1325 43.6401 12.7327 43 13.1802L40.53 11.9702C41.159 11.516 41.6655 10.9128 42.0041 10.2147C42.3427 9.51658 42.5028 8.74539 42.47 7.97021L45 9.18022Z" fill="#FF6242" stroke="#45413C" stroke-linecap="round" stroke-linejoin="round"/>
<path d="M39.5501 46.9999C39.0529 46.4132 38.7079 45.713 38.5457 44.9612C38.3835 44.2095 38.4091 43.4294 38.6201 42.6899L41.3201 42.1099C41.1095 42.8487 41.0832 43.628 41.2436 44.3794C41.404 45.1308 41.7461 45.8314 42.2401 46.4199L39.5501 46.9999Z" fill="#FF6196" stroke="#45413C" stroke-linecap="round" stroke-linejoin="round"/>
<path d="M47.5 25.5299C46.951 26.0681 46.2779 26.4628 45.5401 26.6791C44.8024 26.8954 44.0227 26.9265 43.27 26.7699L42.49 24.1299C43.2435 24.2853 44.0237 24.2525 44.7615 24.0345C45.4993 23.8164 46.172 23.4199 46.72 22.8799L47.5 25.5299Z" fill="#FF8A14" stroke="#45413C" stroke-linecap="round" stroke-linejoin="round"/>
<path d="M36.54 32.5298C37.3091 32.5611 38.0587 32.7808 38.7231 33.1696C39.3874 33.5585 39.9461 34.1045 40.3499 34.7598L39 37.1398C38.5996 36.4835 38.0432 35.9364 37.3801 35.5473C36.7171 35.1582 35.9681 34.9392 35.2 34.9098L36.54 32.5298Z" fill="#4AEFF7" stroke="#45413C" stroke-linecap="round" stroke-linejoin="round"/>
<path d="M30.0001 44.7002C29.2411 44.8251 28.4632 44.7619 27.7344 44.5161C27.0056 44.2702 26.3482 43.8493 25.8201 43.2902L26.7101 40.6802C27.2346 41.2413 27.89 41.6638 28.6177 41.9099C29.3453 42.1559 30.1226 42.2179 30.8801 42.0902L30.0001 44.7002ZM32.8201 21.5402C32.9854 20.7888 33.3326 20.0895 33.8313 19.5037C34.3299 18.9179 34.9648 18.4634 35.6801 18.1802L37.7801 20.0002C37.0638 20.2819 36.4281 20.7359 35.9292 21.322C35.4304 21.9081 35.0837 22.6081 34.9201 23.3602L32.8201 21.5402Z" fill="#FFF48C" stroke="#45413C" stroke-linecap="round" stroke-linejoin="round"/>
</svg>
