<svg width="149" height="123" viewBox="0 0 149 123" fill="none" xmlns="http://www.w3.org/2000/svg">
<g clip-path="url(#clip0_302_22)">
<path d="M34.3823 42.1448C34.3823 63.7524 46.4661 78.197 54.6152 84.5634C56.5529 86.0771 57.8668 88.3271 57.8668 90.786V107.88C57.8668 108.351 57.9143 108.819 58.0016 109.282C58.8246 113.647 60.0643 121.19 73.905 121.19C88.5112 121.19 90.9933 112.789 91.0888 108.589V90.1681C91.0888 88.0524 92.0585 86.0683 93.6114 84.6314C101.953 76.9128 114.86 60.5473 114.86 42.1448C114.86 16.6556 97.6759 1.19019 75.337 1.19019C52.9981 1.19019 34.3823 11.2141 34.3823 42.1448Z" fill="#F0725D" stroke="#9B4232" stroke-width="2"/>
<path d="M92.2649 77.0472C99.2948 69.4383 108.944 57.5564 108.944 42.697C108.944 20.3942 95.132 6.88574 74.4281 6.88574C53.7519 6.88574 39.9126 20.3667 39.9126 42.697C39.9126 63.7041 59.2105 78.784 63.0976 84.215" fill="#F0725D"/>
<path d="M92.2649 77.0472C99.2948 69.4383 108.944 57.5564 108.944 42.697C108.944 20.3942 95.132 6.88574 74.4281 6.88574C53.7519 6.88574 39.9126 20.3667 39.9126 42.697C39.9126 63.7041 59.2105 78.784 63.0976 84.215" stroke="#9B4232" stroke-width="3" stroke-linecap="round" stroke-linejoin="round"/>
<path d="M63.1255 84.2146H86.0623V106.187C86.0623 111.425 81.8168 115.67 76.5789 115.67H72.609C67.371 115.67 63.1255 111.425 63.1255 106.187V84.2146Z" fill="#F0725D" stroke="#9B4232" stroke-width="3" stroke-linecap="round" stroke-linejoin="round"/>
<path d="M63.1255 94.5527H76.6616" stroke="#9B4232" stroke-width="3" stroke-linecap="round" stroke-linejoin="round"/>
<path d="M63.1255 104.891H76.6616" stroke="#9B4232" stroke-width="3" stroke-linecap="round" stroke-linejoin="round"/>
<path d="M79.5559 70.8439C79.5559 58.2728 82.2576 39.1403 91.7135 39.1403C93.9742 39.1403 95.9039 40.4085 95.9039 42.5864C95.9039 45.4535 93.1746 48.8168 86.3377 48.8168C77.7364 48.8168 69.0524 37.7619 69.0524 28.6368C69.0524 24.6945 71.1199 21.8274 74.4281 21.8274C77.7363 21.8274 79.8867 24.6945 79.8867 28.6368C79.8867 37.7895 71.2027 48.8168 62.6014 48.8168C55.7644 48.8168 53.0352 45.4535 53.0352 42.5864C53.0352 40.4085 54.9649 39.1403 57.2255 39.1403C66.6539 39.1403 69.3832 58.2728 69.3832 70.8439" fill="#F0725D"/>
<path d="M79.5559 70.8439C79.5559 58.2728 82.2576 39.1403 91.7135 39.1403C93.9742 39.1403 95.9039 40.4085 95.9039 42.5864C95.9039 45.4535 93.1746 48.8168 86.3377 48.8168C77.7364 48.8168 69.0524 37.7619 69.0524 28.6368C69.0524 24.6945 71.1199 21.8274 74.4281 21.8274C77.7363 21.8274 79.8867 24.6945 79.8867 28.6368C79.8867 37.7895 71.2027 48.8168 62.6014 48.8168C55.7644 48.8168 53.0352 45.4535 53.0352 42.5864C53.0352 40.4085 54.9649 39.1403 57.2255 39.1403C66.6539 39.1403 69.3832 58.2728 69.3832 70.8439" stroke="#9B4232" stroke-width="3" stroke-linecap="round" stroke-linejoin="round"/>
<path d="M127.277 42.8896H147.319" stroke="#9B4232" stroke-width="3" stroke-linecap="round" stroke-linejoin="round"/>
<path d="M1.56494 42.8896H21.6072" stroke="#9B4232" stroke-width="3" stroke-linecap="round" stroke-linejoin="round"/>
<path d="M123.417 23.0684L141.998 15.5422" stroke="#9B4232" stroke-width="3" stroke-linecap="round" stroke-linejoin="round"/>
<path d="M6.88525 70.2098L25.4664 62.6836" stroke="#9B4232" stroke-width="3" stroke-linecap="round" stroke-linejoin="round"/>
<path d="M25.7977 22.2686L7.35449 14.4392" stroke="#9B4232" stroke-width="3" stroke-linecap="round" stroke-linejoin="round"/>
<path d="M141.53 71.3401L123.086 63.5107" stroke="#9B4232" stroke-width="3" stroke-linecap="round" stroke-linejoin="round"/>
</g>
<defs>
<clipPath id="clip0_302_22">
<rect width="149" height="123" fill="white"/>
</clipPath>
</defs>
</svg>
