<svg width="94" height="103" viewBox="0 0 94 103" fill="none" xmlns="http://www.w3.org/2000/svg">
<path d="M24.8444 79.3635L33.9042 76.1862L40.2674 91.0258C42.0711 95.2325 46.8444 97.3003 51.1469 95.739L58.1999 93.0555C61.9989 91.61 63.8962 87.3492 62.4287 83.5586L56.3224 67.786L84.7522 57.6165C88.4346 55.7568 93.6362 48.1316 83.1044 27.6548C74.6719 11.2596 63.752 6.20224 56.753 4.98895C53.9561 4.5041 51.2669 5.83588 49.321 7.90255L7.87745 51.9181C5.32135 54.6328 4.09785 58.3396 4.53564 62.0425L4.56115 62.2581C5.27945 68.3327 8.43845 73.8537 13.3115 77.5511C16.6081 80.0523 20.9395 80.733 24.8444 79.3635Z" fill="#8ECF76" stroke="#006D58" stroke-width="2"/>
<path d="M61.2313 36.2961C53.9458 25.0812 50.9311 14.1114 54.4979 11.7943C58.0646 9.47731 66.8621 16.6905 74.1476 27.9054C81.4331 39.1203 84.4478 50.0901 80.881 52.4071C77.3143 54.7242 68.5168 47.511 61.2313 36.2961Z" stroke="#006D58" stroke-width="3" stroke-linecap="round" stroke-linejoin="round"/>
<path d="M47.1719 19.4718L12.1492 56.1433C9.72169 58.8697 9.70928 63.491 12.9479 68.4825C16.1865 73.4741 20.5516 75.3648 23.8988 74.219L80.8932 52.4389" stroke="#006D58" stroke-width="3" stroke-linecap="round" stroke-linejoin="round"/>
<path d="M49.2919 64.9961L38.1853 69.3616L44.7441 86.0486C45.9495 89.1156 49.4131 90.6247 52.4801 89.4192C55.5471 88.2137 57.0562 84.7502 55.8507 81.6831L49.2919 64.9961Z" stroke="#006D58" stroke-width="3"/>
</svg>
