<svg width="800" height="800" viewBox="0 0 800 800" fill="none" xmlns="http://www.w3.org/2000/svg">
<path d="M237.979 693.18C230.198 691.058 222.841 687.945 215.485 684.974C218.031 676.343 220.295 667.715 221.993 658.519C224.115 645.928 209.826 636.025 200.348 645.928C193.415 652.86 186.059 659.792 179.127 666.3C171.77 661.913 164.414 657.669 157.482 652.86C146.164 645.504 135.412 659.368 140.647 669.694C144.608 677.051 147.579 684.407 150.974 691.765C139.656 701.668 128.48 711.288 117.162 721.191C104.996 731.518 120.558 748.071 133.149 741.987C144.042 736.753 154.794 732.933 166.111 729.396C167.809 733.783 169.082 738.028 170.921 742.412C170.497 744.109 170.073 745.807 170.073 747.646C170.073 753.73 169.224 754.577 170.921 748.918C166.536 761.933 186.908 767.168 191.293 754.577C190.869 756.275 190.02 757.549 189.596 758.539C190.02 758.114 190.02 758.114 190.445 757.689C192.991 755.143 194.83 752.03 196.103 748.636C199.074 740.43 201.762 731.801 204.733 723.596C205.158 722.746 205.158 721.898 205.582 721.474C215.485 720.201 225.529 719.352 235.857 718.928C248.731 717.937 251.843 697.139 237.979 693.18Z" fill="#9B4232"/>
<path d="M188.181 758.114C186.483 760.802 185.493 760.802 188.181 758.114Z" fill="#9B4232"/>
<path d="M144.891 760.802C138.807 770.28 134.139 780.325 131.451 791.501C129.753 798.432 140.081 803.668 143.617 796.735C148.427 786.832 152.672 776.364 156.633 766.036C159.179 758.68 148.71 755.143 144.891 760.802Z" fill="#9B4232"/>
<path d="M110.23 658.659C104.571 661.632 98.4881 663.469 91.9804 665.168C86.3216 666.44 80.6627 665.168 75.1453 665.168C68.2132 665.168 66.0912 674.221 71.75 677.758C86.8875 687.237 104.713 677.334 116.738 667.431C121.972 663.328 115.465 655.973 110.23 658.659Z" fill="#9B4232"/>
<path d="M154.369 606.175C148.286 616.927 150.408 629.518 146.588 641.26C144.891 645.645 151.823 648.616 154.369 644.231C160.028 633.903 162.999 620.463 164.272 608.721C164.838 603.628 156.916 602.354 154.369 606.175Z" fill="#9B4232"/>
<path d="M273.064 649.464C267.829 652.436 263.585 657.245 258.351 660.357C252.692 663.752 246.184 664.743 239.676 663.752C235.291 662.902 231.896 669.411 236.706 671.533C252.267 678.464 272.639 673.655 282.118 658.518C285.513 652.576 278.581 646.494 273.064 649.464Z" fill="#9B4232"/>
<path d="M253.965 770.705C252.692 763.772 246.184 758.962 245.336 751.606C244.487 743.401 232.32 742.976 231.896 751.606C231.896 760.236 235.857 771.553 241.799 777.637C247.458 782.871 254.814 777.212 253.965 770.705Z" fill="#9B4232"/>
<path d="M700.731 533.881C686.442 540.391 672.579 547.321 658.715 553.83C649.661 542.088 639.617 530.488 629.288 519.594C621.082 510.964 605.945 517.472 606.371 529.073C606.371 545.484 607.22 562.46 608.067 578.871C591.233 587.501 574.68 595.704 558.27 604.9C546.102 611.409 551.338 632.204 565.201 631.355C580.763 630.506 595.9 630.931 611.038 632.629C611.887 646.917 612.736 661.204 613.584 675.919C614.009 686.246 626.6 688.085 631.834 681.578C636.643 682.427 641.311 680.304 644.001 674.646C649.235 663.328 655.318 652.576 661.685 642.107C674.276 645.079 686.725 648.616 699.74 652.01C710.492 654.982 723.083 641.683 715.302 631.64C706.671 620.322 698.89 609.146 690.686 597.828C700.589 583.116 710.634 568.826 719.688 553.689C727.61 540.391 712.331 528.788 700.731 533.881Z" fill="#006D58"/>
<path d="M570.435 538.691H570.011C568.738 536.994 566.616 536.145 564.352 534.73C560.957 532.608 558.269 529.92 554.449 529.071C550.488 528.221 546.668 531.618 547.94 535.579C550.062 543.36 562.23 551.991 569.161 546.472H569.587C573.406 545.199 574.68 539.54 570.435 538.691Z" fill="#006D58"/>
<path d="M563.929 658.235C557.42 659.932 552.611 661.63 547.517 666.016C541.434 671.25 538.038 678.182 538.887 685.963C539.736 690.773 545.818 691.198 548.79 688.511C552.751 685.116 554.874 680.304 558.269 676.768C560.815 673.797 566.05 669.837 568.172 668.562C572.982 664.742 570.435 655.973 563.929 658.235Z" fill="#006D58"/>
<path d="M686.442 699.262C682.057 694.452 677.388 691.481 676.964 684.549C676.115 676.343 663.948 675.919 663.524 684.549C663.099 690.633 664.374 695.866 666.919 700.961C669.466 706.054 676.398 713.55 682.905 711.712C688.564 710.156 690.263 703.223 686.442 699.262Z" fill="#006D58"/>
<path d="M741.333 587.641C735.674 588.066 732.28 591.603 727.893 594.997C723.085 598.392 717.99 601.08 713.182 604.051C706.25 608.012 712.331 617.916 719.265 614.945C728.743 610.558 744.871 604.616 746.144 592.874C746.144 589.763 743.598 587.216 741.333 587.641Z" fill="#006D58"/>
<path d="M677.388 464.703C676.116 457.347 664.374 457.347 662.676 464.703C659.281 481.114 662.676 498.513 659.281 515.35C657.583 523.98 670.174 527.517 672.296 518.745C676.963 502.333 680.783 481.537 677.388 464.703Z" fill="#006D58"/>
<path d="M748.267 82.8704C721.811 78.9092 693.234 75.9383 666.496 78.4848C664.374 69.0062 658.715 58.9617 654.328 50.7564C648.669 40.0046 641.313 30.3845 631.836 23.028C626.177 18.218 618.396 18.6424 614.152 25.1501C605.52 39.0143 599.439 55.0005 595.902 70.9868C573.408 68.8647 550.489 71.4112 527.571 71.8356C518.093 71.8356 510.312 83.1534 516.253 91.7831C530.965 113.004 553.46 130.263 577.228 139.883C571.569 160.68 567.749 182.325 562.516 203.546C560.394 213.024 570.297 221.795 578.927 216.137C598.45 203.97 616.982 189.681 634.808 175.393C649.521 190.955 663.385 206.941 678.523 222.644C685.878 230.425 696.771 223.918 697.621 214.863C700.168 191.096 702.007 156.86 690.265 133.517C713.183 126.585 735.253 117.531 753.077 101.545C759.16 96.3102 757.038 84.1437 748.267 82.8704Z" fill="#8ECF76"/>
<path d="M636.644 254.334C635.795 243.016 636.644 232.264 637.917 220.946C638.766 213.59 629.286 210.619 626.6 217.975C623.204 228.303 622.213 239.621 621.79 250.938C621.365 260.417 620.941 273.432 626.6 281.638C629.571 285.599 637.352 286.023 638.342 279.94C640.041 271.593 637.069 262.963 636.644 254.334Z" fill="#8ECF76"/>
<path d="M753.925 171.573C745.72 170.724 740.91 178.505 733.129 179.354C724.924 180.203 724.499 192.369 733.129 192.794C741.759 192.794 754.774 188.832 759.584 180.627C761.282 176.383 758.31 171.997 753.925 171.573Z" fill="#8ECF76"/>
<path d="M721.527 17.0862C720.255 13.125 713.322 10.5785 711.2 15.8129C709.926 18.7838 709.926 21.8962 709.077 25.2915C708.229 29.6771 704.692 33.4969 701.297 36.1848C697.901 38.7313 699.599 45.6634 704.267 43.9658C714.17 39.5801 725.347 27.838 721.527 17.0862Z" fill="#8ECF76"/>
<path d="M572.558 25.2914C568.172 22.7449 564.777 19.6326 562.23 15.8128C558.835 11.0028 557.42 5.061 553.176 1.52421C549.782 -1.02227 543.697 -0.597858 542.424 4.49512C539.878 18.3593 555.014 31.7991 566.191 37.0336C573.406 40.0045 579.915 29.5356 572.558 25.2914Z" fill="#8ECF76"/>
<path d="M531.815 140.874C523.184 140.874 505.784 146.532 508.472 157.709C509.744 163.367 514.98 163.792 519.79 162.943C522.761 162.519 525.025 159.548 527.571 157.709C529.693 156.435 531.532 155.587 533.654 155.162C541.858 153.889 539.736 140.874 531.815 140.874Z" fill="#8ECF76"/>
<path d="M540.161 315.732C501.682 311.771 463.059 311.771 424.58 311.347C424.58 310.922 425.004 310.922 425.004 310.498C431.088 289.702 420.617 261.124 415.101 241.177C407.745 215.146 396.427 187.984 376.621 169.309C369.689 162.802 360.21 166.339 357.098 174.544C340.687 217.41 325.55 261.549 312.959 305.264C312.11 304.839 311.261 304.415 309.988 304.415C267.547 300.029 222.983 297.907 180.542 306.537C171.063 308.234 168.799 319.552 172.336 326.909C187.474 360.72 228.217 398.352 265 406.133C262.029 412.642 258.917 419.573 255.946 426.082C255.097 427.353 253.824 428.628 252.975 430.043C250.853 432.589 250.429 435.702 250.853 438.248C234.442 476.304 220.154 515.35 209.685 555.104C206.714 565.432 219.163 576.75 229.208 569.817C265.99 545.201 301.924 519.594 335.736 491.441C370.821 519.171 405.906 546.051 446.082 565.857C455.136 570.242 465.181 565.007 466.031 554.539C469.002 512.098 464.333 466.261 448.772 426.365C466.031 420.281 483.008 403.022 496.447 391.28C515.546 374.869 533.654 356.619 550.064 337.662C556.996 328.748 551.337 316.581 540.161 315.732Z" fill="#F0725D"/>
<path d="M494.608 217.551C484.705 222.361 477.349 232.689 470.415 240.894C463.907 248.675 458.673 256.88 454.429 265.934C451.034 274.14 461.785 281.072 466.595 273.291C471.83 265.086 477.349 257.305 483.855 250.373C490.787 243.016 499.841 236.508 504.227 227.454C507.622 220.522 501.114 214.014 494.608 217.551Z" fill="#F0725D"/>
<path d="M569.588 453.809C561.807 444.33 550.064 438.671 540.587 430.89C537.191 428.344 534.077 425.231 530.258 423.109C527.711 421.837 527.287 422.26 525.449 420.987C522.477 418.865 518.093 423.109 520.215 426.222C521.063 427.495 521.488 429.193 522.337 431.032C524.883 435.417 528.844 438.813 532.24 442.349C541.294 450.979 551.338 461.448 563.363 463.995C570.013 465.551 573.407 458.62 569.588 453.809Z" fill="#F0725D"/>
<path d="M361.342 575.474C360.918 565.995 361.342 555.951 360.069 546.472C359.644 540.814 351.864 540.814 351.015 546.472C350.166 555.951 350.59 565.995 349.741 575.474C349.317 584.528 348.468 593.158 350.59 602.354C351.864 607.164 358.796 607.164 360.069 602.354C363.04 592.875 361.767 584.53 361.342 575.474Z" fill="#F0725D"/>
<path d="M198.933 421.412C184.22 423.959 168.234 422.685 154.794 421.837C150.408 421.412 146.588 426.646 147.862 430.89C150.833 440.793 162.575 440.793 171.204 440.793C182.098 440.793 194.547 439.944 204.592 435.559C213.222 431.74 206.714 420.14 198.933 421.412Z" fill="#F0725D"/>
<path d="M283.816 259.427C281.269 248.109 277.308 237.357 271.225 227.454C266.415 219.673 259.907 207.507 249.58 209.77C247.458 210.195 245.618 211.892 245.194 214.156C243.072 222.786 251.702 229.718 256.087 236.225C261.746 244.855 265.566 253.909 268.678 263.529C271.649 272.867 285.938 269.047 283.816 259.427Z" fill="#F0725D"/>
<path d="M176.439 124.463C181.673 116.682 186.766 108.901 191.152 100.696C197.235 89.9438 184.644 74.2405 172.902 82.4458C166.819 86.8315 160.311 90.6512 154.228 94.6124C147.296 84.285 141.212 73.8161 135.978 62.6398C130.744 51.3221 113.06 56.981 113.06 68.7231C113.484 85.1338 113.908 101.262 114.757 117.672C103.44 124.18 92.2633 130.263 80.9456 136.771C69.2034 143.279 74.4379 162.377 87.8777 161.811C97.3563 161.811 107.401 161.811 116.879 161.811C115.182 165.773 114.333 169.592 114.333 173.553C114.757 181.759 123.387 187.418 130.744 183.032C138.524 178.222 144.608 170.017 149.842 161.811C159.745 161.811 169.79 161.811 179.693 161.811C191.435 161.811 196.103 147.947 188.747 139.742C184.644 134.366 180.824 129.131 176.439 124.463Z" fill="#40752D"/>
<path d="M171.204 185.013C169.507 180.203 162.15 182.042 163.423 187.135C165.121 193.643 166.819 200.15 168.658 206.658C169.931 214.014 169.507 221.795 171.629 229.152C172.902 233.113 178.561 233.537 179.834 229.152C183.795 214.863 176.014 198.028 171.204 185.013Z" fill="#40752D"/>
<path d="M89.0096 176.383C83.3507 178.93 78.2577 182.891 73.0233 186.286C68.6377 189.257 63.1203 191.096 61.7056 196.614C61.2812 198.311 61.7056 201.424 63.4032 202.697C69.0621 207.507 74.7209 203.546 79.3895 199.726C84.6239 195.34 89.2925 190.672 95.3758 187.135C102.025 182.891 95.9417 173.271 89.0096 176.383Z" fill="#40752D"/>
<path d="M82.5018 109.75C69.9108 103.667 62.5543 91.5002 51.378 84.1436C49.256 82.8704 45.7192 82.446 43.5971 84.1436C42.3239 84.9925 41.8995 85.8413 41.0506 86.6901C39.353 88.8122 39.7774 92.349 41.0506 94.4711C48.8316 106.638 64.8178 116.541 78.2576 120.077C84.1994 121.775 88.585 112.721 82.5018 109.75Z" fill="#40752D"/>
<path d="M165.687 11.0028C162.716 15.8128 160.877 21.3302 158.755 26.5647C156.208 32.6479 152.247 38.7312 148.852 44.8145C144.042 52.171 155.36 58.2543 160.17 51.3222C167.526 40.5703 177.005 27.9794 177.854 14.5396C178.561 7.0416 169.082 5.76836 165.687 11.0028Z" fill="#40752D"/>
<path d="M259.624 122.199C251.843 121.775 244.487 123.048 236.281 124.322C227.227 125.17 218.031 125.17 208.977 126.019C202.045 126.868 202.045 135.922 208.977 136.347C225.388 138.044 247.033 139.742 261.746 131.112C266.556 128.707 264.293 122.624 259.624 122.199Z" fill="#40752D"/>
</svg>
