<svg width="800" height="800" viewBox="0 0 800 800" fill="none" xmlns="http://www.w3.org/2000/svg">
<g clip-path="url(#clip0_306_128)">
<path d="M707.237 666.94C676.839 600.96 625.848 542.264 579.901 486.931C566.593 471.101 549.082 447.987 529.329 425.993C546.84 423.472 564.492 420.812 582.002 418.289C598.671 415.767 600.072 394.336 590.966 383.969C540.396 325.694 487.163 270.36 427.208 221.47C462.788 221.891 503.975 227.074 531.85 206.902C544.738 200.458 546 180.706 533.111 172.16C466.851 126.913 398.209 86.1481 344.697 25.3512C343.436 23.6701 341.755 22.8296 340.354 21.9891C350.58 8.68101 334.33 -7.14862 321.022 3.49786C246.497 62.6138 202.23 152.268 147.036 228.054C138.491 239.682 149.558 260.694 164.547 258.453C204.892 252.85 244.676 245.985 285.02 239.541C276.055 259.714 268.35 280.306 262.747 289.272C227.165 347.967 186.4 404.142 152.64 463.678C144.095 478.667 158.243 498.419 175.334 493.236C202.79 485.111 230.247 478.248 257.704 471.803C203.211 551.511 143.674 627.858 93.1035 710.089C83.7178 725.498 99.1272 745.669 116.638 740.486C203.631 715.131 293.706 697.201 384.481 689.076C387.423 719.053 389.664 748.612 390.084 779.571C390.084 804.366 423.985 807.028 431.689 785.175C441.917 756.457 446.679 726.479 451.023 696.501C451.443 692.578 452.282 688.796 453.124 684.874C530.311 681.931 607.918 685.714 684.543 698.182C702.614 700.841 715.362 684.591 707.237 666.94ZM201.391 675.625C206.574 673.524 211.617 670.864 216.38 668.763C224.085 668.341 231.789 668.341 239.494 667.921C227.166 670.442 214.277 672.964 201.391 675.625Z" fill="url(#paint0_linear_306_128)"/>
</g>
<defs>
<linearGradient id="paint0_linear_306_128" x1="82" y1="-77" x2="733.5" y2="889" gradientUnits="userSpaceOnUse">
<stop stop-color="#8ECF76"/>
<stop offset="1" stop-color="#40752D"/>
</linearGradient>
<clipPath id="clip0_306_128">
<rect width="800" height="800" fill="white"/>
</clipPath>
</defs>
</svg>
