<svg width="375" height="456" viewBox="0 0 375 456" fill="none" xmlns="http://www.w3.org/2000/svg">
<path fill-rule="evenodd" clip-rule="evenodd" d="M250.39 1.23083C289.106 6.56152 328.156 23.0145 347.142 41.9944C373.23 68.0794 382.16 106.209 368.947 135.101C362.794 148.557 349.668 161.239 334.446 168.433C318.682 175.886 312.17 177.446 283.427 180.652C255.01 183.822 245.646 186.803 240.236 194.405C235.632 200.871 236.55 202.56 245.338 203.793C262.299 206.173 273.524 212.35 288.176 227.366C295.939 235.322 302.289 242.538 302.289 243.404C302.289 244.269 300.65 245.497 298.649 246.133C295.74 247.056 295.374 247.973 296.828 250.689C299.889 256.413 298.913 257.975 292.273 257.975C286.688 257.975 285.9 258.539 285.9 262.529C285.9 268.109 282.223 268.436 277.552 263.271C275.656 261.174 272.633 258.672 270.838 257.71C267.953 256.166 267.719 256.559 268.818 261.068C269.505 263.876 271.579 268.128 273.429 270.518C277.709 276.042 277.659 277.494 273.152 278.926C270.556 279.749 269.51 281.682 269.51 285.652C269.51 290.831 269.137 291.148 264.217 290.165C260.078 289.336 258.333 289.981 256.215 293.125L253.507 297.144L246.03 289.097C241.917 284.672 238.238 281.392 237.852 281.81C237.466 282.229 237.852 287.596 238.708 293.737C242.681 322.256 245.839 362.734 245.85 385.303C245.859 406.982 246.316 410.785 249.479 415.563C254.835 423.652 254.258 427.405 247.658 427.405C242.397 427.405 242.195 427.709 242.195 435.603C242.195 444.625 241.108 445.217 232.611 440.821C227.236 438.039 226.726 438.05 224.963 440.98C218.378 451.922 216.583 451.519 210.138 437.647C207.754 432.515 204.156 426.266 202.142 423.761C199.443 420.404 197.819 413.818 195.963 398.695C194.579 387.414 192.432 376.96 191.194 375.466C188.515 372.238 172.037 371.704 170.134 374.785C167.648 378.808 166.523 425.383 168.761 431.543C172.314 441.32 171.871 442.459 164.837 441.637C158.723 440.925 158.445 441.156 157.066 448.129C156.281 452.106 154.825 455.631 153.832 455.962C152.84 456.292 149.717 454.419 146.892 451.8L141.755 447.035L136.582 451.994C130.396 457.923 128.28 457.052 126.694 447.921C126.04 444.151 123.053 436.137 120.058 430.109C115.336 420.604 114.547 416.848 114.138 401.856C113.877 392.346 113.112 383.672 112.437 382.581C111.763 381.489 103.193 380.07 93.3926 379.427C60.13 377.248 32.3613 366.773 16.1397 350.283C5.5359 339.507 0 328.567 0 318.392C0 312.116 0.773928 310.376 4.28121 308.778C7.78484 307.181 10.3252 307.722 18.2957 311.762L28.0291 316.696L33.3119 310.108C36.2182 306.485 39.2684 303.52 40.0897 303.52C40.9128 303.52 43.3584 306.39 45.5254 309.897C50.3256 317.667 52.8095 318.03 52.8095 310.957C52.8095 299.585 55.9161 297.621 65.8115 302.741C75.1188 307.558 77.0891 305.193 72.8115 294.337C70.7957 289.223 69.6739 284.184 70.3186 283.141C71.0014 282.036 75.5649 281.584 81.2701 282.057C92.5823 282.996 93.125 281.915 86.3508 271.939C83.7649 268.133 82.0605 263.947 82.5631 262.637C83.0657 261.325 87.2103 259.693 91.7738 259.009C96.3372 258.324 100.518 257.04 101.065 256.156C101.611 255.273 99.5805 251.728 96.5539 248.279C88.8565 239.508 89.4028 236.539 99.1889 233.921C103.667 232.722 107.704 230.765 108.161 229.57C108.62 228.377 105.777 224.812 101.844 221.651C97.9106 218.488 94.6929 214.664 94.6929 213.152C94.6929 211.574 98.568 208.794 103.798 206.619C108.806 204.537 112.903 202.099 112.903 201.199C112.903 200.301 110.035 197.045 106.529 193.966C103.024 190.887 100.156 187.193 100.156 185.759C100.156 184.323 103.843 181.569 108.35 179.636C112.858 177.703 116.514 175.068 116.476 173.78C116.438 172.491 113.16 169.191 109.192 166.446C105.224 163.698 101.977 160.275 101.977 158.838C101.977 157.4 105.459 154.303 109.716 151.953C113.974 149.605 117.456 146.733 117.456 145.573C117.456 144.412 113.974 140.938 109.716 137.854C105.459 134.769 101.977 131.508 101.977 130.608C101.977 129.707 105.664 126.808 110.172 124.166C114.679 121.523 118.366 118.628 118.366 117.73C118.366 116.832 114.679 113.449 110.172 110.211C105.664 106.972 101.977 103.622 101.977 102.765C101.977 101.909 105.664 98.9795 110.172 96.2559C114.679 93.5322 118.335 90.0671 118.297 88.5568C118.259 87.0465 114.981 83.565 111.013 80.8195C107.045 78.0721 103.798 75.0333 103.798 74.0641C103.798 73.0949 107.485 70.1399 111.993 67.4964C116.5 64.8547 120.187 61.8633 120.187 60.8503C120.187 59.8374 117.647 55.8002 114.544 51.8778C111.439 47.9572 109.319 43.6504 109.835 42.3077C110.35 40.9632 114.689 38.879 119.479 37.6712C125.892 36.0552 130.476 33.1512 136.875 26.6491C147.2 16.1535 159.554 9.77706 179.37 4.71418C196.508 0.336313 231.44 -1.37803 250.39 1.23083ZM184.864 7.49794C151.452 14.5776 129.177 36.6619 126.184 65.6764C125.217 75.0479 125.47 75.875 130.631 80.2201C142.338 90.0744 142.527 105.895 131.04 114.392C125.889 118.202 123.618 124.981 127.491 124.981C132.575 124.981 146.492 133.511 149.525 138.488C157.948 152.308 151.07 166.278 132.934 172.186C120.173 176.344 119.202 180.033 129.64 184.704C143.906 191.09 148.477 200.882 142.566 212.403C138.71 219.918 132.763 223.296 123.317 223.332C114.485 223.367 112.238 227.872 118.517 232.954C136.66 247.638 130.119 270.727 107.815 270.727C100.624 270.727 99.3437 274.69 103.829 283.063C107.436 289.798 108.573 300.83 106.047 304.614C102.995 309.185 95.8984 311.196 86.9863 310.013C75.7416 308.52 72.8407 310.66 72.8407 320.453C72.8407 329.691 68.7525 334.492 60.8839 334.492C56.6027 334.492 53.7418 333.051 50.5933 329.307C46.6162 324.579 36.4203 320.434 36.4203 323.548C36.4203 326.807 27.0494 334.492 23.0723 334.492C17.2887 334.492 14.743 331.17 13.0968 321.478C12.026 315.169 10.917 313.42 7.69561 312.958C2.32543 312.187 2.42196 316.31 8.06164 328.427C14.0819 341.362 25.1264 351.464 42.6009 360.021C61.2754 369.165 72.6185 372.012 96.9855 373.674C107.695 374.404 117.213 375.929 118.138 377.064C119.065 378.197 119.741 384.455 119.641 390.968C119.338 410.683 121.677 422.933 126.701 427.959C132.3 433.561 140.444 435.263 149.708 432.767C159.825 430.041 162.07 423.761 162.07 398.194C162.07 378.895 163.555 371.823 168.262 368.678C170.709 367.044 187.964 366.853 192.035 368.416C197.282 370.431 200.359 379.624 202.169 398.702C204.149 419.562 206.966 425.394 216.37 428.092C231.038 432.3 240.387 419.559 240.356 395.403C240.31 359.351 231.344 272.34 226.775 263.619C220.689 251.999 204.708 241.578 192.979 241.578C189.69 241.578 187.818 240.82 188.475 239.756C189.947 237.375 196.759 237.446 206.684 239.946C216.867 242.511 228.392 252.367 233.882 263.207C240.363 276 244.466 280.292 250.222 280.292C262.94 280.292 267.127 264.65 258.071 250.961C248.135 235.94 220.922 218.333 204.837 216.519C196.959 215.632 194.701 213.861 198.473 211.529C200.133 210.501 214.004 212.596 223.413 215.294C226.906 216.296 227.527 215.579 228.487 209.423C230.45 196.812 236.244 187.768 245.631 182.656C254.106 178.042 259.542 176.914 299.557 171.47C324.445 168.083 341.883 160.271 353.159 147.457C357.231 142.829 360.545 138.133 360.525 137.021C360.507 135.91 357.513 138.553 353.876 142.895L347.262 150.787L333.445 135.001L326.084 143.199C319.643 150.37 318.434 151.042 316.423 148.555C315.16 146.992 312.211 143.307 309.871 140.366L305.618 135.021L291.497 151.397L277.204 135.001L262.261 151.397L258.73 146.843C248.534 133.687 250.279 134.086 242.117 143.046C238.01 147.557 234.157 150.359 233.352 149.422C229.982 145.504 220.343 132.6 220.341 132.006C220.341 131.649 252.57 131.598 291.96 131.891L363.581 132.425L365.56 125.515C370.994 106.547 369.85 90.7976 361.763 73.2516C347.078 41.384 307.344 16.7729 255.853 7.64733C236.342 4.19131 200.824 4.1148 184.864 7.49794ZM234.084 32.7868C235.355 39.5659 232.589 46.6419 228.669 46.6419C225.813 46.6419 223.985 42.7286 223.985 36.6218C223.985 25.2262 232.09 22.1473 234.084 32.7868ZM212.518 29.6405C216.084 38.9355 211.766 52.6812 206.622 48.4109C203.273 45.6307 202.034 39.0776 203.688 32.8943C205.341 26.7092 210.644 24.7562 212.518 29.6405ZM113.985 43.0091C112.848 44.146 113.759 46.4068 116.545 49.3746C121.349 54.4903 122.405 53.9729 125.384 45.0514L127.438 38.9064L121.593 40.076C118.379 40.7191 114.955 42.0381 113.985 43.0091ZM341.136 55.1444C341.805 55.8112 342.351 58.2706 342.351 60.6099C342.351 65.4942 336.154 66.6784 334.408 62.1274C332.29 56.6073 337.351 51.3549 341.136 55.1444ZM323.391 58.2433C325.223 63.0183 323.351 67.5929 319.563 67.5929C316.762 67.5929 315.946 66.365 315.946 62.153C315.946 56.1919 321.488 53.2824 323.391 58.2433ZM112.2 70.4878L107.362 74.2955L112.049 77.9829C114.628 80.0124 116.988 81.3733 117.293 81.0089C118.727 79.3037 119.786 66.682 118.497 66.682C117.694 66.682 114.859 68.3946 112.2 70.4878ZM182.074 70.6737C182.058 71.9854 181.251 74.2882 180.281 75.7912C178.846 78.012 178.511 77.777 178.487 74.5323C178.472 72.337 179.279 70.0342 180.281 69.4148C181.282 68.7954 182.089 69.362 182.074 70.6737ZM176.611 69.8702C176.595 70.6227 175.788 72.4664 174.818 73.9694C173.39 76.1793 173.048 75.9169 173.024 72.603C173.009 70.3494 173.816 68.5039 174.818 68.5039C175.819 68.5039 176.626 69.1178 176.611 69.8702ZM125.559 99.1562L126.561 114.321L131.751 108.887C138.843 101.455 138.878 92.0584 131.838 84.7073C125.222 77.797 124.29 79.9395 125.559 99.1562ZM111.488 98.668C106.207 102.366 106.369 103.463 112.903 108.296L118.366 112.337V104.084C118.366 95.068 117.545 94.4213 111.488 98.668ZM111.082 126.863L106.529 130.486L111.668 135.046C118.062 140.72 120.187 139.544 120.187 130.339C120.187 122.186 118.006 121.353 111.082 126.863ZM125.042 148.992C124.401 160.195 124.191 169.676 124.578 170.06C126.892 172.376 140.071 167.377 145.226 162.228C155.143 152.321 152.303 139.508 138.579 132.252C126.624 125.93 126.34 126.282 125.042 148.992ZM340.53 137.451C340.53 139.231 347.607 145.977 348.3 144.859C348.555 144.447 350.316 142.264 352.214 140.011L355.663 135.912H348.096C343.935 135.912 340.53 136.604 340.53 137.451ZM313.051 139.249C317.075 146.772 319.9 147.336 324.086 141.452L328.031 135.912H319.648C312.086 135.912 311.441 136.238 313.051 139.249ZM284.119 137.278C284.179 139.262 291.008 147.861 291.694 146.815C292.013 146.329 294.26 143.678 296.687 140.922L301.103 135.912H292.59C287.908 135.912 284.097 136.527 284.119 137.278ZM258.639 141.452C262.825 147.336 265.65 146.772 269.674 139.249C271.284 136.238 270.639 135.912 263.077 135.912H254.695L258.639 141.452ZM229.393 139.453C232.571 145.393 235.077 145.682 240.066 140.69L244.845 135.912H236.171C228.146 135.912 227.64 136.176 229.393 139.453ZM106.384 158.011C105.014 160.224 112.213 166.774 116.09 166.843C117.581 166.868 118.366 164.041 118.366 158.637V150.393L113.018 153.159C110.077 154.68 107.092 156.865 106.384 158.011ZM108.973 182.518L103.403 185.4L108.474 190.696C111.266 193.611 113.699 195.797 113.883 195.559C114.882 194.254 116.427 179.636 115.565 179.636C115.003 179.636 112.036 180.933 108.973 182.518ZM121.912 187.379C121.859 188.632 120.728 196.214 119.397 204.23C118.067 212.247 117.317 219.171 117.729 219.62C119.663 221.726 132.1 219.691 136.25 216.59C146.382 209.022 145.039 197.295 133.12 189.268C126.24 184.635 122.057 183.93 121.912 187.379ZM235.266 214.673C234.74 220.867 235.228 221.494 245.125 227.286C250.852 230.638 260.19 238.095 265.879 243.855C271.566 249.616 277.548 254.331 279.175 254.331C286.169 254.331 288.17 238.949 282.405 229.492C275.928 218.863 263.758 211.629 247.658 208.836C236.532 206.907 235.904 207.204 235.266 214.673ZM104.342 209.731L97.7212 212.5L102.904 217.911C105.754 220.888 108.454 222.953 108.904 222.502C110.015 221.39 112.601 206.963 111.69 206.963C111.291 206.963 107.984 208.209 104.342 209.731ZM112.903 236.954C112.903 238.419 110.942 245.797 108.544 253.351L104.184 267.084H111.359C123.924 267.084 131.093 255.641 125.417 244.646C120.688 235.491 112.903 230.705 112.903 236.954ZM100.427 236.291C93.5693 238.683 93.2106 241.372 99.0214 246.832L103.35 250.9L104.57 245.785C105.242 242.97 106.218 239.233 106.739 237.479C107.855 233.719 107.821 233.713 100.427 236.291ZM293.184 241.407C293.184 244.063 294.103 244.641 297.095 243.857C300.837 242.879 300.861 242.728 297.658 240.385C293.351 237.233 293.184 237.271 293.184 241.407ZM289.569 254.786C289.554 255.537 290.771 256.153 292.273 256.153C295.356 256.153 295.467 255.834 293.841 251.595C292.912 249.173 292.366 249.051 291.137 250.99C290.29 252.327 289.585 254.036 289.569 254.786ZM278.616 260.485C278.616 260.862 279.845 262.192 281.347 263.44C283.585 265.298 284.079 265.173 284.079 262.751C284.079 261.126 282.849 259.796 281.347 259.796C279.845 259.796 278.616 260.106 278.616 260.485ZM86.1942 264.351C85.87 265.353 87.4889 268.525 89.7889 271.402L93.9699 276.628L99.9447 261.411L93.3617 261.97C89.7415 262.278 86.5165 263.349 86.1942 264.351ZM267.689 274.371C267.689 275.373 268.509 276.193 269.51 276.193C270.512 276.193 271.331 275.373 271.331 274.371C271.331 273.369 270.512 272.549 269.51 272.549C268.509 272.549 267.689 273.369 267.689 274.371ZM263.295 286.554C267.298 289.481 268.385 288.541 266.792 283.522C265.772 280.305 265.094 280.033 262.82 281.923C260.396 283.934 260.451 284.473 263.295 286.554ZM95.4013 285.758C93.735 289.013 90.0056 294.692 87.1138 298.376C81.2538 305.836 82.1388 307.426 92.3164 307.716C99.453 307.918 105.619 302.418 105.619 295.851C105.619 292.42 100.486 279.837 99.0852 279.837C98.7246 279.837 97.0657 282.502 95.4013 285.758ZM72.8407 286.271C72.8407 286.805 74.0862 290.221 75.6068 293.865L78.3729 300.489L82.8908 294.364C85.3765 290.995 87.4088 287.578 87.4088 286.771C87.4088 285.963 84.131 285.302 80.1247 285.302C76.1185 285.302 72.8407 285.738 72.8407 286.271ZM251.3 288.946C251.3 289.948 251.661 290.768 252.103 290.768C252.546 290.768 253.413 289.948 254.032 288.946C254.651 287.944 254.289 287.124 253.229 287.124C252.169 287.124 251.3 287.944 251.3 288.946ZM56.4515 308.986C56.4515 315.339 56.6282 315.397 64.1526 311.502L69.8524 308.554L65.4291 306.102C58.5621 302.296 56.4515 302.974 56.4515 308.986ZM32.8184 316.729C32.7965 317.479 35.6464 318.095 39.1519 318.095C46.1955 318.095 47.2153 315.696 42.4224 310.396C39.3941 307.048 39.2393 307.068 36.0889 311.163C34.3116 313.473 32.8402 315.978 32.8184 316.729ZM54.015 322.469C49.5754 323.535 49.1784 324.113 51.2088 326.558C59.1211 336.097 73.5654 330.815 70.0326 319.675C69.073 316.649 68.4593 316.556 64.0725 318.766C61.3828 320.119 56.8576 321.786 54.015 322.469ZM18.3012 328.225C21.3569 331.908 26.1735 331.486 30.0577 327.193C33.8891 322.958 34.0639 323.196 24.5837 319.689C17.418 317.038 17.2905 317.066 16.7133 321.3C16.391 323.666 17.1048 326.783 18.3012 328.225ZM144.316 395.818C143.063 396.325 141.014 396.325 139.763 395.818C138.51 395.314 139.535 394.9 142.039 394.9C144.543 394.9 145.567 395.314 144.316 395.818ZM242.195 421.136C242.195 422.581 243.863 423.761 245.901 423.761C249.06 423.761 249.315 423.217 247.631 420.067C245.522 416.126 242.195 416.78 242.195 421.136ZM229.847 433.782C229.565 434.011 231.409 435.558 233.944 437.221C238.529 440.225 238.553 440.213 238.553 434.671C238.553 429.475 238.276 429.243 234.456 431.231C232.203 432.404 230.127 433.552 229.847 433.782ZM161.797 435.603C161.797 436.554 162.679 437.627 163.755 437.986C164.831 438.345 165.712 437.274 165.712 435.603C165.712 433.933 164.831 432.862 163.755 433.22C162.679 433.579 161.797 434.652 161.797 435.603ZM215.437 440.158C217.888 446.655 219.536 447.081 220.973 441.59C222.009 437.624 219.738 434.776 215.494 434.72C213.895 434.7 213.882 436.035 215.437 440.158ZM130.112 446.817C131.244 451.335 131.408 451.386 134.841 448.278C139.457 444.099 139.33 442.213 134.3 440.32C129.529 438.526 128.451 440.198 130.112 446.817ZM147.502 441.947C145.164 443.432 145.361 444.274 148.868 447.79C152.211 451.142 152.965 451.348 152.965 448.91C152.965 447.267 153.463 444.625 154.071 443.04C155.316 439.792 151.814 439.211 147.502 441.947Z" fill="url(#paint0_linear_8_51)"/>
<defs>
<linearGradient id="paint0_linear_8_51" x1="0" y1="228" x2="375" y2="228" gradientUnits="userSpaceOnUse">
<stop stop-color="#30CFD0"/>
<stop offset="1" stop-color="#330867"/>
</linearGradient>
</defs>
</svg>
